<svg width="151" height="18" viewBox="0 0 151 18" fill="none" xmlns="http://www.w3.org/2000/svg">
<g clip-path="url(#clip0_5242_26144)">
<g clip-path="url(#clip1_5242_26144)">
<path d="M8 1.75C6.71442 1.75 5.45772 2.13122 4.3888 2.84545C3.31988 3.55968 2.48676 4.57484 1.99479 5.76256C1.50282 6.95028 1.37409 8.25721 1.6249 9.51809C1.8757 10.779 2.49477 11.9372 3.40381 12.8462C4.31285 13.7552 5.47104 14.3743 6.73192 14.6251C7.99279 14.8759 9.29973 14.7472 10.4874 14.2552C11.6752 13.7632 12.6903 12.9301 13.4046 11.8612C14.1188 10.7923 14.5 9.53558 14.5 8.25C14.498 6.5267 13.8126 4.87456 12.594 3.65601C11.3754 2.43745 9.7233 1.75199 8 1.75ZM11.0957 7.11182L7.42871 10.6118C7.33548 10.7005 7.21171 10.75 7.08301 10.75C6.95432 10.75 6.83054 10.7005 6.73731 10.6118L4.9043 8.86182C4.80854 8.77008 4.7531 8.64409 4.75016 8.51151C4.74723 8.37894 4.79704 8.25062 4.88865 8.15474C4.98026 8.05886 5.10618 8.00326 5.23875 8.00015C5.37132 7.99705 5.49971 8.0467 5.59571 8.13818L7.08301 9.55859L10.4043 6.38818C10.5003 6.2967 10.6287 6.24705 10.7613 6.25015C10.8938 6.25326 11.0198 6.30886 11.1114 6.40474C11.203 6.50062 11.2528 6.62894 11.2498 6.76152C11.2469 6.89409 11.1915 7.02008 11.0957 7.11182Z" fill="black"/>
<path d="M27.9045 13.3903C26.1765 13.3903 24.8325 12.8463 23.8885 11.7743C22.9445 10.7022 22.4805 9.32625 22.4805 7.66225C22.4805 5.98225 22.9445 4.59025 23.8885 3.51825C24.8325 2.44625 26.1605 1.90225 27.9045 1.90225C29.2965 1.90225 30.4325 2.28625 31.3285 3.07025C32.2245 3.83825 32.7365 4.79825 32.8645 5.95025H30.3045C30.1125 4.92625 29.3605 4.17425 27.9045 4.17425C26.0485 4.17425 25.0405 5.40625 25.0405 7.66225C25.0405 9.91825 26.0485 11.1342 27.9045 11.1342C29.2325 11.1342 30.0325 10.5582 30.3205 9.42225H28.2245V7.19825H32.9445V8.46225C32.9445 9.95025 32.4805 11.1343 31.5365 12.0463C30.5925 12.9423 29.3925 13.3903 27.9045 13.3903ZM38.3504 13.2463H34.4784V2.04625H38.3504C40.0304 2.04625 41.4224 2.55825 42.5104 3.59825C43.5984 4.63825 44.1424 5.98225 44.1424 7.64625C44.1424 9.23025 43.5984 10.5742 42.5264 11.6462C41.4544 12.7183 40.0624 13.2463 38.3504 13.2463ZM36.8304 4.28625V11.0223H38.2064C40.3664 11.0223 41.5824 9.93425 41.5824 7.64625C41.5824 5.39025 40.3664 4.28625 38.2064 4.28625H36.8304ZM52.416 8.99025L55.12 13.0863V13.2463H52.176L49.76 9.29425H48.192V13.2463H45.68V2.04625H50.8C51.952 2.04625 52.88 2.39825 53.568 3.08625C54.272 3.77425 54.624 4.62225 54.624 5.61425C54.624 7.21425 53.808 8.43025 52.416 8.99025ZM50.672 4.28625H48.192V7.05425H50.672C51.616 7.05425 52.048 6.41425 52.048 5.63025C52.048 4.87825 51.584 4.28625 50.672 4.28625ZM58.8467 13.2463H56.3347V2.04625H61.4227C62.5427 2.04625 63.4387 2.39825 64.1107 3.10225C64.7827 3.79025 65.1187 4.67025 65.1187 5.74225C65.1187 6.83025 64.7827 7.72625 64.0947 8.44625C63.4227 9.15025 62.5267 9.50225 61.4227 9.50225H58.8467V13.2463ZM58.8467 4.27025V7.26225H60.9267C62.0147 7.26225 62.5587 6.75025 62.5587 5.74225C62.5587 4.78225 61.9507 4.27025 60.9267 4.27025H58.8467ZM76.1783 13.3903C74.5943 13.3903 73.3783 12.8783 72.5143 11.8383C71.6663 10.7983 71.2343 9.40625 71.2343 7.66225C71.2343 5.90225 71.6663 4.51025 72.5303 3.47025C73.3943 2.43025 74.6103 1.90225 76.1783 1.90225C78.8183 1.90225 80.4183 3.37425 80.6583 5.79025H79.2183C79.0263 4.19025 78.0183 3.21425 76.1783 3.21425C73.5703 3.21425 72.6743 5.39025 72.6743 7.66225C72.6743 9.93425 73.5703 12.0942 76.1783 12.0942C77.9223 12.0942 78.9463 11.2622 79.2343 9.61425H80.6583C80.3383 11.9823 78.8023 13.3903 76.1783 13.3903ZM86.05 13.3903C84.818 13.3903 83.906 13.0063 83.282 12.2222C82.658 11.4382 82.354 10.4143 82.354 9.16625C82.354 7.91825 82.674 6.89425 83.298 6.11025C83.922 5.32625 84.85 4.92625 86.05 4.92625C87.25 4.92625 88.178 5.32625 88.802 6.11025C89.426 6.89425 89.746 7.91825 89.746 9.16625C89.746 10.4143 89.426 11.4382 88.802 12.2222C88.178 13.0063 87.266 13.3903 86.05 13.3903ZM86.05 12.1903C87.65 12.1903 88.386 11.0223 88.386 9.16625C88.386 7.31025 87.65 6.12625 86.05 6.12625C84.466 6.12625 83.714 7.31025 83.714 9.16625C83.714 11.0223 84.466 12.1903 86.05 12.1903ZM100.874 4.92625C102.666 4.92625 103.69 6.07825 103.69 7.93425V13.2463H102.346V8.14225C102.346 6.79825 101.738 6.12625 100.538 6.12625C99.2584 6.12625 98.4904 7.08625 98.4904 8.73425V13.2463H97.1464V8.14225C97.1464 6.79825 96.5384 6.12625 95.3384 6.12625C94.0584 6.12625 93.2584 7.08625 93.2584 8.73425V13.2463H91.9144V5.07025H93.0824L93.1944 6.35025H93.2584C93.7544 5.40625 94.5704 4.92625 95.7064 4.92625C96.8904 4.92625 97.7064 5.40625 98.1704 6.35025H98.2344C98.7304 5.40625 99.6104 4.92625 100.874 4.92625ZM107.694 16.9102H106.35V5.07025H107.518L107.694 6.20625H107.758C108.27 5.35825 109.086 4.92625 110.222 4.92625C112.382 4.92625 113.678 6.52625 113.694 9.16625C113.678 10.4303 113.374 11.4382 112.782 12.2222C112.19 13.0063 111.326 13.3903 110.222 13.3903C109.086 13.3903 108.27 12.9583 107.758 12.1103H107.694V16.9102ZM109.998 12.1903C111.598 12.1903 112.334 10.9423 112.334 9.16625C112.334 7.37425 111.598 6.12625 109.998 6.12625C108.462 6.12625 107.662 7.42225 107.662 9.16625C107.662 10.9102 108.462 12.1903 109.998 12.1903ZM117.208 13.2463H115.864V1.40625H117.208V13.2463ZM121.287 3.37425H119.783V1.80625H121.287V3.37425ZM121.207 13.2463H119.863V5.07025H121.207V13.2463ZM126.069 13.3903C125.205 13.3903 124.517 13.1502 123.989 12.6702C123.477 12.1903 123.221 11.5823 123.221 10.8623C123.221 9.37425 124.341 8.30225 126.597 8.30225H128.613V7.77425C128.613 6.79825 127.989 6.07825 126.725 6.07825C125.573 6.07825 124.933 6.70225 124.917 7.53425H123.621C123.621 6.75025 123.909 6.12625 124.485 5.64625C125.077 5.16625 125.813 4.92625 126.725 4.92625C127.733 4.92625 128.517 5.19825 129.077 5.72625C129.637 6.25425 129.925 6.92625 129.925 7.74225V13.2463H128.789L128.693 12.0942H128.629C128.117 12.9583 127.269 13.3903 126.069 13.3903ZM126.309 12.2703C126.997 12.2703 127.541 12.0623 127.973 11.6302C128.405 11.1982 128.613 10.6862 128.613 10.0782V9.37425H126.597C125.253 9.37425 124.581 9.87025 124.581 10.8463C124.581 11.6943 125.173 12.2703 126.309 12.2703ZM133.922 13.2463H132.578V5.07025H133.746L133.858 6.35025H133.922C134.418 5.40625 135.25 4.92625 136.45 4.92625C138.242 4.92625 139.314 6.06225 139.314 7.93425V13.2463H137.97V8.14225C137.97 6.79825 137.346 6.12625 136.082 6.12625C134.722 6.12625 133.922 7.08625 133.922 8.73425V13.2463ZM145.903 13.2463H144.687C143.135 13.2463 142.527 12.4782 142.527 11.0542V6.20625H141.167V5.07025H142.559V2.87825H143.871V5.07025H145.871V6.20625H143.871V10.9423C143.871 11.7263 144.191 12.0623 144.943 12.0623H145.903V13.2463Z" fill="black"/>
</g>
</g>
<defs>
<clipPath id="clip0_5242_26144">
<rect width="151" height="17" fill="white" transform="translate(0 0.25)"/>
</clipPath>
<clipPath id="clip1_5242_26144">
<rect width="151" height="17" fill="white" transform="translate(0 0.25)"/>
</clipPath>
</defs>
</svg>
