<svg width="152" height="18" viewBox="0 0 152 18" fill="none" xmlns="http://www.w3.org/2000/svg">
<g clip-path="url(#clip0_5242_26149)">
<g clip-path="url(#clip1_5242_26149)">
<path d="M8.39063 1.75C7.10505 1.75 5.84835 2.13122 4.77943 2.84545C3.71051 3.55968 2.87739 4.57484 2.38542 5.76256C1.89345 6.95028 1.76472 8.25721 2.01553 9.51809C2.26633 10.779 2.8854 11.9372 3.79444 12.8462C4.70348 13.7552 5.86167 14.3743 7.12255 14.6251C8.38342 14.8759 9.69036 14.7472 10.878 14.2552C12.0658 13.7632 13.0809 12.9301 13.7952 11.8612C14.5094 10.7923 14.8906 9.53558 14.8906 8.25C14.8886 6.5267 14.2032 4.87456 12.9846 3.65601C11.766 2.43745 10.1139 1.75199 8.39063 1.75ZM11.4863 7.11182L7.81934 10.6118C7.72611 10.7005 7.60234 10.75 7.47364 10.75C7.34495 10.75 7.22117 10.7005 7.12794 10.6118L5.29493 8.86182C5.19917 8.77008 5.14373 8.64409 5.14079 8.51151C5.13786 8.37894 5.18767 8.25062 5.27928 8.15474C5.37089 8.05886 5.49681 8.00326 5.62938 8.00015C5.76195 7.99705 5.89034 8.0467 5.98634 8.13818L7.47364 9.55859L10.7949 6.38818C10.8909 6.2967 11.0193 6.24705 11.1519 6.25015C11.2844 6.25326 11.4104 6.30886 11.502 6.40474C11.5936 6.50062 11.6434 6.62894 11.6404 6.76152C11.6375 6.89409 11.5821 7.02008 11.4863 7.11182Z" fill="black"/>
<path d="M27.4309 13.3903C24.5029 13.3903 22.8549 11.8862 22.7109 9.40625H25.2549C25.3669 10.5743 26.1669 11.1663 27.4309 11.1663C28.8229 11.1663 29.5269 10.7822 29.5269 10.0142C29.5269 9.39025 29.1429 9.03825 28.1669 8.83025L26.5349 8.47825C24.3429 8.01425 23.0789 7.10225 23.0789 5.11825C23.0789 4.17425 23.4789 3.39025 24.2789 2.79825C25.0789 2.20625 26.1349 1.90225 27.4469 1.90225C28.7429 1.90225 29.7989 2.23825 30.6309 2.92625C31.4789 3.61425 31.8949 4.47825 31.9109 5.55025H29.3669C29.3029 4.73425 28.6469 4.14225 27.4149 4.14225C26.1989 4.14225 25.6549 4.59025 25.6549 5.11825C25.6549 5.61425 25.9589 5.95025 26.9189 6.15825L28.4389 6.47825C30.7589 6.97425 32.1029 7.90225 32.1029 9.95025C32.1029 12.0783 30.6309 13.3903 27.4309 13.3903ZM32.9163 7.64625C32.9163 5.96625 33.3803 4.59025 34.3243 3.51825C35.2683 2.44625 36.6123 1.90225 38.3563 1.90225C40.1003 1.90225 41.4283 2.44625 42.3723 3.51825C43.3163 4.59025 43.7963 5.96625 43.7963 7.64625C43.7963 9.32625 43.3163 10.7022 42.3723 11.7743C41.4283 12.8463 40.1003 13.3903 38.3563 13.3903C36.6123 13.3903 35.2683 12.8463 34.3243 11.7743C33.3803 10.7022 32.9163 9.32625 32.9163 7.64625ZM38.3563 4.17425C36.4843 4.17425 35.4763 5.39025 35.4763 7.64625C35.4763 9.90225 36.5003 11.1182 38.3563 11.1182C40.2123 11.1182 41.2363 9.90225 41.2363 7.64625C41.2363 5.39025 40.2123 4.17425 38.3563 4.17425ZM50.12 13.3903C48.392 13.3903 47.048 12.8463 46.104 11.7743C45.16 10.7022 44.696 9.32625 44.696 7.66225C44.696 5.98225 45.16 4.59025 46.104 3.51825C47.048 2.44625 48.376 1.90225 50.12 1.90225C51.512 1.90225 52.664 2.31825 53.576 3.16625C54.488 4.01425 55 5.03825 55.08 6.27025H52.52C52.408 5.10225 51.592 4.17425 50.12 4.17425C48.264 4.17425 47.256 5.40625 47.256 7.66225C47.256 9.91825 48.264 11.1342 50.12 11.1342C51.528 11.1342 52.328 10.3022 52.536 9.13425H55.08C54.968 10.3342 54.456 11.3422 53.544 12.1582C52.632 12.9742 51.496 13.3903 50.12 13.3903ZM68.4602 13.2463H60.5081V11.2303L64.1721 7.72625C64.7641 7.16625 65.1801 6.70225 65.4201 6.35025C65.6601 5.99825 65.7721 5.63025 65.7721 5.24625C65.7721 4.52625 65.2441 4.03025 64.4121 4.03025C63.5161 4.03025 62.8761 4.55825 62.8761 5.66225H60.4761C60.4761 3.27825 62.0281 1.85425 64.4121 1.85425C65.5481 1.85425 66.4761 2.15825 67.1961 2.78225C67.9161 3.39025 68.2841 4.19025 68.2841 5.16625C68.2841 6.31825 67.7242 7.29425 66.3801 8.57425L63.8041 10.9742V11.0382H68.4602V13.2463ZM79.5984 13.3903C78.0144 13.3903 76.7984 12.8783 75.9344 11.8383C75.0864 10.7983 74.6544 9.40625 74.6544 7.66225C74.6544 5.90225 75.0864 4.51025 75.9504 3.47025C76.8144 2.43025 78.0304 1.90225 79.5984 1.90225C82.2384 1.90225 83.8384 3.37425 84.0784 5.79025H82.6384C82.4464 4.19025 81.4384 3.21425 79.5984 3.21425C76.9904 3.21425 76.0944 5.39025 76.0944 7.66225C76.0944 9.93425 76.9904 12.0942 79.5984 12.0942C81.3424 12.0942 82.3664 11.2622 82.6544 9.61425H84.0784C83.7584 11.9823 82.2224 13.3903 79.5984 13.3903ZM89.4701 13.3903C88.2381 13.3903 87.3261 13.0063 86.7021 12.2222C86.0781 11.4382 85.7741 10.4143 85.7741 9.16625C85.7741 7.91825 86.0941 6.89425 86.7181 6.11025C87.3421 5.32625 88.2701 4.92625 89.4701 4.92625C90.6701 4.92625 91.5981 5.32625 92.2221 6.11025C92.8461 6.89425 93.1661 7.91825 93.1661 9.16625C93.1661 10.4143 92.8461 11.4382 92.2221 12.2222C91.5981 13.0063 90.6861 13.3903 89.4701 13.3903ZM89.4701 12.1903C91.0701 12.1903 91.8061 11.0223 91.8061 9.16625C91.8061 7.31025 91.0701 6.12625 89.4701 6.12625C87.8861 6.12625 87.1341 7.31025 87.1341 9.16625C87.1341 11.0223 87.8861 12.1903 89.4701 12.1903ZM104.295 4.92625C106.087 4.92625 107.111 6.07825 107.111 7.93425V13.2463H105.767V8.14225C105.767 6.79825 105.159 6.12625 103.959 6.12625C102.679 6.12625 101.911 7.08625 101.911 8.73425V13.2463H100.567V8.14225C100.567 6.79825 99.9585 6.12625 98.7585 6.12625C97.4785 6.12625 96.6785 7.08625 96.6785 8.73425V13.2463H95.3345V5.07025H96.5025L96.6145 6.35025H96.6785C97.1745 5.40625 97.9905 4.92625 99.1265 4.92625C100.311 4.92625 101.127 5.40625 101.591 6.35025H101.655C102.151 5.40625 103.031 4.92625 104.295 4.92625ZM111.115 16.9102H109.771V5.07025H110.939L111.115 6.20625H111.179C111.691 5.35825 112.507 4.92625 113.643 4.92625C115.803 4.92625 117.099 6.52625 117.115 9.16625C117.099 10.4303 116.795 11.4382 116.203 12.2222C115.611 13.0063 114.747 13.3903 113.643 13.3903C112.507 13.3903 111.691 12.9583 111.179 12.1103H111.115V16.9102ZM113.419 12.1903C115.019 12.1903 115.755 10.9423 115.755 9.16625C115.755 7.37425 115.019 6.12625 113.419 6.12625C111.883 6.12625 111.083 7.42225 111.083 9.16625C111.083 10.9102 111.883 12.1903 113.419 12.1903ZM120.629 13.2463H119.285V1.40625H120.629V13.2463ZM124.707 3.37425H123.203V1.80625H124.707V3.37425ZM124.627 13.2463H123.283V5.07025H124.627V13.2463ZM129.49 13.3903C128.626 13.3903 127.938 13.1502 127.41 12.6702C126.898 12.1903 126.642 11.5823 126.642 10.8623C126.642 9.37425 127.762 8.30225 130.018 8.30225H132.034V7.77425C132.034 6.79825 131.41 6.07825 130.146 6.07825C128.994 6.07825 128.354 6.70225 128.338 7.53425H127.042C127.042 6.75025 127.33 6.12625 127.906 5.64625C128.498 5.16625 129.234 4.92625 130.146 4.92625C131.154 4.92625 131.938 5.19825 132.498 5.72625C133.058 6.25425 133.346 6.92625 133.346 7.74225V13.2463H132.21L132.114 12.0942H132.05C131.538 12.9583 130.69 13.3903 129.49 13.3903ZM129.73 12.2703C130.418 12.2703 130.962 12.0623 131.394 11.6302C131.826 11.1982 132.034 10.6862 132.034 10.0782V9.37425H130.018C128.674 9.37425 128.002 9.87025 128.002 10.8463C128.002 11.6943 128.594 12.2703 129.73 12.2703ZM137.343 13.2463H135.999V5.07025H137.167L137.279 6.35025H137.343C137.839 5.40625 138.671 4.92625 139.871 4.92625C141.663 4.92625 142.735 6.06225 142.735 7.93425V13.2463H141.391V8.14225C141.391 6.79825 140.767 6.12625 139.503 6.12625C138.143 6.12625 137.343 7.08625 137.343 8.73425V13.2463ZM149.324 13.2463H148.108C146.556 13.2463 145.948 12.4782 145.948 11.0542V6.20625H144.588V5.07025H145.98V2.87825H147.292V5.07025H149.292V6.20625H147.292V10.9423C147.292 11.7263 147.612 12.0623 148.364 12.0623H149.324V13.2463Z" fill="black"/>
</g>
</g>
<defs>
<clipPath id="clip0_5242_26149">
<rect width="151" height="17" fill="white" transform="translate(0.390625 0.25)"/>
</clipPath>
<clipPath id="clip1_5242_26149">
<rect width="151" height="17" fill="white" transform="translate(0.390625 0.25)"/>
</clipPath>
</defs>
</svg>
