<svg width="198" height="17" viewBox="0 0 198 17" fill="none" xmlns="http://www.w3.org/2000/svg">
<g clip-path="url(#clip0_5242_26154)">
<g clip-path="url(#clip1_5242_26154)">
<g clip-path="url(#clip2_5242_26154)">
<path d="M8.7793 2.25C7.49372 2.25 6.23702 2.63122 5.1681 3.34545C4.09918 4.05968 3.26606 5.07484 2.77409 6.26256C2.28212 7.45028 2.15339 8.75721 2.4042 10.0181C2.655 11.279 3.27407 12.4372 4.18311 13.3462C5.09215 14.2552 6.25034 14.8743 7.51122 15.1251C8.77209 15.3759 10.079 15.2472 11.2667 14.7552C12.4545 14.2632 13.4696 13.4301 14.1839 12.3612C14.8981 11.2923 15.2793 10.0356 15.2793 8.75C15.2773 7.0267 14.5919 5.37456 13.3733 4.15601C12.1547 2.93745 10.5026 2.25199 8.7793 2.25ZM11.875 7.61182L8.20801 11.1118C8.11478 11.2005 7.99101 11.25 7.86231 11.25C7.73362 11.25 7.60984 11.2005 7.51661 11.1118L5.6836 9.36182C5.58784 9.27008 5.5324 9.14409 5.52946 9.01151C5.52653 8.87894 5.57634 8.75062 5.66795 8.65474C5.75956 8.55886 5.88548 8.50326 6.01805 8.50015C6.15062 8.49705 6.27901 8.5467 6.37501 8.63818L7.86231 10.0586L11.1836 6.88818C11.2796 6.7967 11.408 6.74705 11.5406 6.75015C11.6731 6.75326 11.7991 6.80886 11.8907 6.90474C11.9823 7.00062 12.0321 7.12894 12.0291 7.26152C12.0262 7.39409 11.9708 7.52008 11.875 7.61182Z" fill="black"/>
<path d="M28.0376 2.81818V13H25.8849V2.81818H28.0376ZM35.2552 5.74645C35.2154 5.34541 35.0447 5.03385 34.7431 4.81179C34.4415 4.58972 34.0322 4.47869 33.5152 4.47869C33.1638 4.47869 32.8672 4.52841 32.6252 4.62784C32.3833 4.72396 32.1977 4.85819 32.0684 5.03054C31.9425 5.20289 31.8795 5.39844 31.8795 5.61719C31.8729 5.79948 31.911 5.95857 31.9938 6.09446C32.08 6.23035 32.1977 6.34801 32.3468 6.44744C32.496 6.54356 32.6683 6.62808 32.8639 6.70099C33.0594 6.7706 33.2682 6.83026 33.4903 6.87997L34.4051 7.09872C34.8492 7.19815 35.2569 7.33073 35.6281 7.49645C35.9993 7.66217 36.3208 7.866 36.5926 8.10795C36.8643 8.34991 37.0748 8.63494 37.224 8.96307C37.3764 9.29119 37.4543 9.66738 37.4576 10.0916C37.4543 10.7147 37.2952 11.255 36.9804 11.7124C36.6688 12.1664 36.218 12.5194 35.6281 12.7713C35.0414 13.0199 34.3338 13.1442 33.5052 13.1442C32.6832 13.1442 31.9673 13.0182 31.3575 12.7663C30.7509 12.5144 30.277 12.1416 29.9356 11.6477C29.5975 11.1506 29.4202 10.5357 29.4036 9.80327H31.4867C31.5099 10.1446 31.6077 10.4297 31.7801 10.6584C31.9557 10.8838 32.1894 11.0545 32.4811 11.1705C32.776 11.2831 33.1091 11.3395 33.4804 11.3395C33.8449 11.3395 34.1615 11.2865 34.4299 11.1804C34.7017 11.0743 34.9122 10.9268 35.0613 10.7379C35.2105 10.549 35.285 10.3319 35.285 10.0866C35.285 9.85795 35.2171 9.66572 35.0812 9.50994C34.9486 9.35417 34.7531 9.22159 34.4946 9.11222C34.2393 9.00284 33.9261 8.90341 33.5549 8.81392L32.4463 8.53551C31.5878 8.3267 30.91 8.00024 30.4129 7.55611C29.9157 7.11198 29.6688 6.51373 29.6721 5.76136C29.6688 5.14489 29.8329 4.6063 30.1643 4.1456C30.4991 3.6849 30.9581 3.32528 31.5414 3.06676C32.1248 2.80824 32.7876 2.67898 33.5301 2.67898C34.2857 2.67898 34.9453 2.80824 35.5088 3.06676C36.0755 3.32528 36.5163 3.6849 36.8312 4.1456C37.1461 4.6063 37.3085 5.13991 37.3184 5.74645H35.2552ZM48.1851 7.90909C48.1851 9.01941 47.9747 9.96402 47.5537 10.7429C47.1361 11.5218 46.5661 12.1167 45.8435 12.5277C45.1243 12.9354 44.3156 13.1392 43.4174 13.1392C42.5125 13.1392 41.7005 12.9337 40.9813 12.5227C40.2621 12.1117 39.6937 11.5168 39.276 10.7379C38.8584 9.95904 38.6496 9.0161 38.6496 7.90909C38.6496 6.79877 38.8584 5.85417 39.276 5.07528C39.6937 4.2964 40.2621 3.70312 40.9813 3.29545C41.7005 2.88447 42.5125 2.67898 43.4174 2.67898C44.3156 2.67898 45.1243 2.88447 45.8435 3.29545C46.5661 3.70312 47.1361 4.2964 47.5537 5.07528C47.9747 5.85417 48.1851 6.79877 48.1851 7.90909ZM46.0026 7.90909C46.0026 7.18987 45.8949 6.58333 45.6795 6.08949C45.4673 5.59564 45.1674 5.22112 44.7796 4.96591C44.3918 4.7107 43.9377 4.5831 43.4174 4.5831C42.897 4.5831 42.4429 4.7107 42.0552 4.96591C41.6674 5.22112 41.3658 5.59564 41.1503 6.08949C40.9382 6.58333 40.8322 7.18987 40.8322 7.90909C40.8322 8.62831 40.9382 9.23485 41.1503 9.72869C41.3658 10.2225 41.6674 10.5971 42.0552 10.8523C42.4429 11.1075 42.897 11.2351 43.4174 11.2351C43.9377 11.2351 44.3918 11.1075 44.7796 10.8523C45.1674 10.5971 45.4673 10.2225 45.6795 9.72869C45.8949 9.23485 46.0026 8.62831 46.0026 7.90909ZM52.8063 13V11.4489L56.4306 8.09304C56.7389 7.79474 56.9974 7.52628 57.2062 7.28764C57.4183 7.04901 57.5791 6.81534 57.6884 6.58665C57.7978 6.35464 57.8525 6.1044 57.8525 5.83594C57.8525 5.53764 57.7846 5.28078 57.6487 5.06534C57.5128 4.84659 57.3272 4.67921 57.0919 4.56321C56.8565 4.44389 56.5897 4.38423 56.2914 4.38423C55.9799 4.38423 55.7081 4.44721 55.4761 4.57315C55.2441 4.6991 55.0651 4.87973 54.9392 5.11506C54.8132 5.35038 54.7502 5.63044 54.7502 5.95526H52.7069C52.7069 5.28906 52.8577 4.7107 53.1593 4.22017C53.4609 3.72964 53.8835 3.35014 54.4271 3.08168C54.9706 2.81321 55.5971 2.67898 56.3063 2.67898C57.0355 2.67898 57.6702 2.80824 58.2105 3.06676C58.754 3.32197 59.1766 3.67661 59.4782 4.13068C59.7798 4.58475 59.9306 5.10511 59.9306 5.69176C59.9306 6.07623 59.8544 6.45573 59.7019 6.83026C59.5528 7.20478 59.286 7.62074 58.9015 8.07812C58.517 8.5322 57.9751 9.07741 57.2758 9.71378L55.7893 11.1705V11.2401H60.0649V13H52.8063ZM61.9504 13L66.1713 4.64773V4.57812H61.2544V2.81818H68.3986V4.60298L64.1727 13H61.9504ZM73.5703 13.2237C72.7152 13.2204 71.9794 13.0099 71.3629 12.5923C70.7498 12.1747 70.2775 11.5698 69.946 10.7777C69.6179 9.98556 69.4555 9.03267 69.4588 7.91903C69.4588 6.80871 69.6229 5.86245 69.951 5.08026C70.2824 4.29806 70.7547 3.70312 71.3679 3.29545C71.9844 2.88447 72.7185 2.67898 73.5703 2.67898C74.4221 2.67898 75.1546 2.88447 75.7678 3.29545C76.3842 3.70644 76.8582 4.30303 77.1896 5.08523C77.5211 5.86411 77.6851 6.80871 77.6818 7.91903C77.6818 9.03598 77.5161 9.99053 77.1847 10.7827C76.8565 11.5748 76.3859 12.1797 75.7727 12.5973C75.1596 13.0149 74.4254 13.2237 73.5703 13.2237ZM73.5703 11.4389C74.1536 11.4389 74.6193 11.1456 74.9673 10.5589C75.3153 9.9723 75.4877 9.09233 75.4844 7.91903C75.4844 7.14678 75.4048 6.50379 75.2457 5.99006C75.09 5.47633 74.8679 5.0902 74.5795 4.83168C74.2945 4.57315 73.9581 4.44389 73.5703 4.44389C72.9903 4.44389 72.5263 4.7339 72.1783 5.31392C71.8303 5.89394 71.6546 6.76231 71.6513 7.91903C71.6513 8.70123 71.7292 9.35417 71.8849 9.87784C72.044 10.3982 72.2678 10.7893 72.5561 11.0511C72.8445 11.3097 73.1825 11.4389 73.5703 11.4389ZM83.132 13.2237C82.2769 13.2204 81.5411 13.0099 80.9246 12.5923C80.3114 12.1747 79.8391 11.5698 79.5077 10.7777C79.1796 9.98556 79.0172 9.03267 79.0205 7.91903C79.0205 6.80871 79.1845 5.86245 79.5127 5.08026C79.8441 4.29806 80.3164 3.70312 80.9296 3.29545C81.546 2.88447 82.2802 2.67898 83.132 2.67898C83.9838 2.67898 84.7163 2.88447 85.3294 3.29545C85.9459 3.70644 86.4199 4.30303 86.7513 5.08523C87.0827 5.86411 87.2468 6.80871 87.2435 7.91903C87.2435 9.03598 87.0778 9.99053 86.7463 10.7827C86.4182 11.5748 85.9476 12.1797 85.3344 12.5973C84.7212 13.0149 83.9871 13.2237 83.132 13.2237ZM83.132 11.4389C83.7153 11.4389 84.181 11.1456 84.529 10.5589C84.877 9.9723 85.0494 9.09233 85.046 7.91903C85.046 7.14678 84.9665 6.50379 84.8074 5.99006C84.6516 5.47633 84.4296 5.0902 84.1412 4.83168C83.8562 4.57315 83.5198 4.44389 83.132 4.44389C82.552 4.44389 82.088 4.7339 81.7399 5.31392C81.3919 5.89394 81.2163 6.76231 81.213 7.91903C81.213 8.70123 81.2908 9.35417 81.4466 9.87784C81.6057 10.3982 81.8294 10.7893 82.1178 11.0511C82.4061 11.3097 82.7442 11.4389 83.132 11.4389ZM93.1312 2.81818V13H90.9785V4.86151H90.9188L88.5871 6.32315V4.41406L91.1077 2.81818H93.1312ZM107.935 6H106.702C106.63 5.64536 106.502 5.33381 106.32 5.06534C106.141 4.79688 105.922 4.5715 105.663 4.3892C105.408 4.2036 105.125 4.06439 104.813 3.97159C104.502 3.87879 104.177 3.83239 103.839 3.83239C103.222 3.83239 102.664 3.98816 102.163 4.29972C101.666 4.61127 101.27 5.07031 100.975 5.67685C100.684 6.28338 100.538 7.02746 100.538 7.90909C100.538 8.79072 100.684 9.5348 100.975 10.1413C101.27 10.7479 101.666 11.2069 102.163 11.5185C102.664 11.83 103.222 11.9858 103.839 11.9858C104.177 11.9858 104.502 11.9394 104.813 11.8466C105.125 11.7538 105.408 11.6162 105.663 11.4339C105.922 11.2483 106.141 11.0213 106.32 10.7528C106.502 10.4811 106.63 10.1695 106.702 9.81818H107.935C107.843 10.3385 107.674 10.8042 107.428 11.2152C107.183 11.6262 106.878 11.9759 106.514 12.2642C106.149 12.5492 105.74 12.7663 105.286 12.9155C104.835 13.0646 104.353 13.1392 103.839 13.1392C102.97 13.1392 102.198 12.9271 101.522 12.5028C100.846 12.0786 100.314 11.4754 99.9262 10.6932C99.5384 9.91098 99.3445 8.98295 99.3445 7.90909C99.3445 6.83523 99.5384 5.9072 99.9262 5.125C100.314 4.3428 100.846 3.73958 101.522 3.31534C102.198 2.8911 102.97 2.67898 103.839 2.67898C104.353 2.67898 104.835 2.75355 105.286 2.9027C105.74 3.05185 106.149 3.2706 106.514 3.55895C106.878 3.84399 107.183 4.192 107.428 4.60298C107.674 5.01065 107.843 5.47633 107.935 6ZM112.893 13.1591C112.158 13.1591 111.523 12.9967 110.989 12.6719C110.459 12.3438 110.05 11.8864 109.761 11.2997C109.476 10.7098 109.334 10.0237 109.334 9.24148C109.334 8.45928 109.476 7.76989 109.761 7.1733C110.05 6.57339 110.451 6.10606 110.964 5.77131C111.481 5.43324 112.085 5.2642 112.774 5.2642C113.172 5.2642 113.565 5.33049 113.952 5.46307C114.34 5.59564 114.693 5.81108 115.011 6.10938C115.329 6.40436 115.583 6.79545 115.772 7.28267C115.961 7.76989 116.055 8.36979 116.055 9.08239V9.57955H110.169V8.56534H114.862C114.862 8.13447 114.776 7.75 114.604 7.41193C114.435 7.07386 114.193 6.80705 113.878 6.61151C113.566 6.41596 113.198 6.31818 112.774 6.31818C112.307 6.31818 111.902 6.43419 111.561 6.66619C111.223 6.89489 110.963 7.19318 110.78 7.56108C110.598 7.92898 110.507 8.32339 110.507 8.74432V9.42045C110.507 9.99716 110.606 10.486 110.805 10.8871C111.008 11.2848 111.288 11.5881 111.646 11.7969C112.003 12.0024 112.419 12.1051 112.893 12.1051C113.202 12.1051 113.48 12.062 113.729 11.9759C113.981 11.8864 114.198 11.7538 114.38 11.5781C114.562 11.3991 114.703 11.1771 114.803 10.9119L115.936 11.2301C115.817 11.6146 115.616 11.9527 115.334 12.2443C115.053 12.5327 114.705 12.758 114.29 12.9205C113.876 13.0795 113.41 13.1591 112.893 13.1591ZM117.763 13V5.36364H118.897V6.51705H118.976C119.115 6.1392 119.367 5.83262 119.732 5.5973C120.096 5.36198 120.507 5.24432 120.965 5.24432C121.051 5.24432 121.159 5.24597 121.288 5.24929C121.417 5.2526 121.515 5.25758 121.581 5.2642V6.45739C121.542 6.44744 121.45 6.43253 121.308 6.41264C121.169 6.38944 121.021 6.37784 120.865 6.37784C120.494 6.37784 120.163 6.45573 119.871 6.61151C119.583 6.76397 119.354 6.97609 119.185 7.24787C119.019 7.51634 118.936 7.82292 118.936 8.16761V13H117.763ZM126.695 5.36364V6.35795H122.737V5.36364H126.695ZM123.891 3.53409H125.064V10.8125C125.064 11.1439 125.112 11.3925 125.208 11.5582C125.308 11.7206 125.434 11.83 125.586 11.8864C125.742 11.9394 125.906 11.9659 126.078 11.9659C126.207 11.9659 126.314 11.9593 126.396 11.946C126.479 11.9295 126.546 11.9162 126.595 11.9062L126.834 12.9602C126.754 12.9901 126.643 13.0199 126.501 13.0497C126.358 13.0829 126.178 13.0994 125.959 13.0994C125.627 13.0994 125.303 13.0282 124.984 12.8857C124.67 12.7431 124.408 12.526 124.199 12.2344C123.993 11.9427 123.891 11.5748 123.891 11.1307V3.53409ZM128.383 13V5.36364H129.556V13H128.383ZM128.979 4.09091C128.75 4.09091 128.553 4.01302 128.388 3.85724C128.225 3.70147 128.144 3.5142 128.144 3.29545C128.144 3.0767 128.225 2.88944 128.388 2.73366C128.553 2.57789 128.75 2.5 128.979 2.5C129.208 2.5 129.403 2.57789 129.566 2.73366C129.732 2.88944 129.814 3.0767 129.814 3.29545C129.814 3.5142 129.732 3.70147 129.566 3.85724C129.403 4.01302 129.208 4.09091 128.979 4.09091ZM135.028 5.36364V6.35795H130.912V5.36364H135.028ZM132.145 13V4.30966C132.145 3.87216 132.248 3.50758 132.453 3.21591C132.659 2.92424 132.925 2.70549 133.254 2.55966C133.582 2.41383 133.928 2.34091 134.293 2.34091C134.581 2.34091 134.816 2.36411 134.999 2.41051C135.181 2.45691 135.317 2.5 135.406 2.53977L135.068 3.55398C135.009 3.53409 134.926 3.50923 134.82 3.4794C134.717 3.44957 134.581 3.43466 134.412 3.43466C134.024 3.43466 133.744 3.53243 133.572 3.72798C133.403 3.92353 133.318 4.21023 133.318 4.58807V13H132.145ZM136.596 13V5.36364H137.769V13H136.596ZM137.192 4.09091C136.964 4.09091 136.766 4.01302 136.601 3.85724C136.438 3.70147 136.357 3.5142 136.357 3.29545C136.357 3.0767 136.438 2.88944 136.601 2.73366C136.766 2.57789 136.964 2.5 137.192 2.5C137.421 2.5 137.617 2.57789 137.779 2.73366C137.945 2.88944 138.028 3.0767 138.028 3.29545C138.028 3.5142 137.945 3.70147 137.779 3.85724C137.617 4.01302 137.421 4.09091 137.192 4.09091ZM142.943 13.1591C142.227 13.1591 141.611 12.9901 141.094 12.652C140.577 12.3139 140.179 11.8482 139.901 11.255C139.622 10.6617 139.483 9.9839 139.483 9.22159C139.483 8.44602 139.626 7.7616 139.911 7.16832C140.199 6.57173 140.6 6.10606 141.114 5.77131C141.631 5.43324 142.234 5.2642 142.923 5.2642C143.46 5.2642 143.944 5.36364 144.375 5.5625C144.806 5.76136 145.159 6.03977 145.434 6.39773C145.709 6.75568 145.88 7.1733 145.946 7.65057H144.773C144.683 7.30256 144.485 6.99432 144.176 6.72585C143.871 6.45407 143.46 6.31818 142.943 6.31818C142.486 6.31818 142.085 6.4375 141.74 6.67614C141.399 6.91146 141.132 7.24455 140.94 7.67543C140.751 8.10298 140.656 8.60511 140.656 9.18182C140.656 9.77178 140.749 10.2855 140.935 10.723C141.124 11.1605 141.389 11.5002 141.73 11.7422C142.075 11.9841 142.479 12.1051 142.943 12.1051C143.248 12.1051 143.525 12.0521 143.774 11.946C144.022 11.84 144.233 11.6875 144.405 11.4886C144.577 11.2898 144.7 11.0511 144.773 10.7727H145.946C145.88 11.2235 145.716 11.6295 145.454 11.9908C145.195 12.3487 144.852 12.6338 144.425 12.8459C144.001 13.0547 143.507 13.1591 142.943 13.1591ZM149.832 13.179C149.348 13.179 148.908 13.0878 148.514 12.9055C148.12 12.7199 147.806 12.4531 147.574 12.1051C147.342 11.7538 147.226 11.3295 147.226 10.8324C147.226 10.3949 147.313 10.0402 147.485 9.76847C147.657 9.49337 147.888 9.27794 148.176 9.12216C148.464 8.96638 148.782 8.85038 149.131 8.77415C149.482 8.6946 149.835 8.63163 150.189 8.58523C150.653 8.52557 151.03 8.48082 151.318 8.45099C151.61 8.41785 151.822 8.36316 151.954 8.28693C152.09 8.2107 152.158 8.07812 152.158 7.8892V7.84943C152.158 7.3589 152.024 6.97775 151.756 6.70597C151.49 6.43419 151.088 6.2983 150.547 6.2983C149.987 6.2983 149.548 6.42093 149.23 6.66619C148.912 6.91146 148.688 7.1733 148.559 7.4517L147.445 7.05398C147.644 6.58996 147.909 6.22869 148.241 5.97017C148.575 5.70833 148.94 5.52604 149.334 5.4233C149.732 5.31723 150.123 5.2642 150.508 5.2642C150.753 5.2642 151.035 5.29403 151.353 5.35369C151.674 5.41004 151.984 5.5277 152.282 5.70668C152.584 5.88565 152.834 6.15578 153.033 6.51705C153.232 6.87831 153.332 7.36222 153.332 7.96875V13H152.158V11.9659H152.099C152.019 12.1316 151.886 12.3089 151.701 12.4979C151.515 12.6868 151.268 12.8475 150.96 12.9801C150.652 13.1127 150.276 13.179 149.832 13.179ZM150.01 12.125C150.474 12.125 150.866 12.0339 151.184 11.8516C151.505 11.6693 151.747 11.4339 151.91 11.1456C152.075 10.8572 152.158 10.554 152.158 10.2358V9.16193C152.108 9.22159 151.999 9.27628 151.83 9.32599C151.664 9.3724 151.472 9.41383 151.253 9.45028C151.038 9.48343 150.827 9.51326 150.622 9.53977C150.42 9.56297 150.256 9.58286 150.13 9.59943C149.825 9.6392 149.54 9.70384 149.275 9.79332C149.013 9.8795 148.801 10.0104 148.638 10.1861C148.479 10.3584 148.4 10.5937 148.4 10.892C148.4 11.2997 148.55 11.608 148.852 11.8168C149.157 12.0223 149.543 12.125 150.01 12.125ZM158.717 5.36364V6.35795H154.76V5.36364H158.717ZM155.913 3.53409H157.086V10.8125C157.086 11.1439 157.134 11.3925 157.231 11.5582C157.33 11.7206 157.456 11.83 157.608 11.8864C157.764 11.9394 157.928 11.9659 158.101 11.9659C158.23 11.9659 158.336 11.9593 158.419 11.946C158.502 11.9295 158.568 11.9162 158.618 11.9062L158.856 12.9602C158.777 12.9901 158.666 13.0199 158.523 13.0497C158.381 13.0829 158.2 13.0994 157.981 13.0994C157.65 13.0994 157.325 13.0282 157.007 12.8857C156.692 12.7431 156.43 12.526 156.221 12.2344C156.016 11.9427 155.913 11.5748 155.913 11.1307V3.53409ZM160.405 13V5.36364H161.578V13H160.405ZM161.002 4.09091C160.773 4.09091 160.576 4.01302 160.41 3.85724C160.248 3.70147 160.166 3.5142 160.166 3.29545C160.166 3.0767 160.248 2.88944 160.41 2.73366C160.576 2.57789 160.773 2.5 161.002 2.5C161.23 2.5 161.426 2.57789 161.588 2.73366C161.754 2.88944 161.837 3.0767 161.837 3.29545C161.837 3.5142 161.754 3.70147 161.588 3.85724C161.426 4.01302 161.23 4.09091 161.002 4.09091ZM166.752 13.1591C166.063 13.1591 165.458 12.995 164.938 12.6669C164.421 12.3388 164.016 11.8797 163.725 11.2898C163.436 10.6998 163.292 10.0104 163.292 9.22159C163.292 8.42614 163.436 7.73177 163.725 7.13849C164.016 6.54522 164.421 6.08452 164.938 5.75639C165.458 5.42827 166.063 5.2642 166.752 5.2642C167.442 5.2642 168.045 5.42827 168.562 5.75639C169.083 6.08452 169.487 6.54522 169.775 7.13849C170.067 7.73177 170.213 8.42614 170.213 9.22159C170.213 10.0104 170.067 10.6998 169.775 11.2898C169.487 11.8797 169.083 12.3388 168.562 12.6669C168.045 12.995 167.442 13.1591 166.752 13.1591ZM166.752 12.1051C167.276 12.1051 167.707 11.9709 168.045 11.7024C168.383 11.4339 168.633 11.081 168.796 10.6435C168.958 10.206 169.039 9.73201 169.039 9.22159C169.039 8.71117 168.958 8.23556 168.796 7.79474C168.633 7.35393 168.383 6.99763 168.045 6.72585C167.707 6.45407 167.276 6.31818 166.752 6.31818C166.229 6.31818 165.798 6.45407 165.46 6.72585C165.122 6.99763 164.872 7.35393 164.709 7.79474C164.547 8.23556 164.466 8.71117 164.466 9.22159C164.466 9.73201 164.547 10.206 164.709 10.6435C164.872 11.081 165.122 11.4339 165.46 11.7024C165.798 11.9709 166.229 12.1051 166.752 12.1051ZM173.1 8.40625V13H171.927V5.36364H173.06V6.55682H173.16C173.339 6.16903 173.61 5.85748 173.975 5.62216C174.34 5.38352 174.81 5.2642 175.387 5.2642C175.904 5.2642 176.356 5.37027 176.744 5.58239C177.132 5.79119 177.434 6.10938 177.649 6.53693C177.864 6.96117 177.972 7.49811 177.972 8.14773V13H176.799V8.22727C176.799 7.62737 176.643 7.16004 176.332 6.82528C176.02 6.48722 175.592 6.31818 175.049 6.31818C174.674 6.31818 174.34 6.39938 174.045 6.56179C173.753 6.72419 173.523 6.96117 173.354 7.27273C173.185 7.58428 173.1 7.96212 173.1 8.40625Z" fill="black"/>
</g>
</g>
</g>
<defs>
<clipPath id="clip0_5242_26154">
<rect width="197" height="16" fill="white" transform="translate(0.779297 0.75)"/>
</clipPath>
<clipPath id="clip1_5242_26154">
<rect width="197" height="16" fill="white" transform="translate(0.779297 0.75)"/>
</clipPath>
<clipPath id="clip2_5242_26154">
<rect width="197" height="16" fill="white" transform="translate(0.779297 0.75)"/>
</clipPath>
</defs>
</svg>
