<svg width="159" height="48" viewBox="0 0 159 48" fill="none" xmlns="http://www.w3.org/2000/svg">
<g clip-path="url(#clip0_5242_26171)">
<mask id="mask0_5242_26171" style="mask-type:luminance" maskUnits="userSpaceOnUse" x="19" y="13" width="120" height="22">
<path d="M138.195 13.6484H19.1953V34.6871H138.195V13.6484Z" fill="white"/>
</mask>
<g mask="url(#mask0_5242_26171)">
<mask id="mask1_5242_26171" style="mask-type:luminance" maskUnits="userSpaceOnUse" x="19" y="13" width="119" height="22">
<path d="M137.969 13.6484H19.4883V34.6871H137.969V13.6484Z" fill="white"/>
</mask>
<g mask="url(#mask1_5242_26171)">
<path d="M30.7409 13.6719L33.1631 21.0423H33.2323L30.8101 13.6719H30.7409ZM41.3121 22.0285L41.2429 22.0804L34.9798 26.648L37.3674 34.0531L37.3847 34.105L37.4366 34.0704L35.0663 26.6653L41.3294 22.0804L41.3121 22.0285ZM30.2219 30.1257L23.9414 34.6586L23.9933 34.6932L30.2564 30.1429L30.2219 30.1257Z" fill="#0D0F2C"/>
<path d="M65.9938 24.766C65.9938 25.4775 65.6865 25.6893 64.5335 26.092C63.6103 26.4388 62.8996 26.5924 62.6878 26.5924C62.303 26.5924 62.1306 26.3038 62.1306 25.7079C62.1306 24.2857 62.5334 22.5556 64.0331 22.5556C65.4172 22.5556 65.9938 24.0553 65.9938 24.766ZM50.9989 30.9752C50.9989 30.8596 50.9809 30.7835 50.9235 30.7254C50.7691 30.571 50.1925 30.4756 49.904 30.1869C49.6936 29.9752 49.5579 29.6105 49.5579 28.7648V25.5156C49.5579 25.265 49.6162 25.1121 49.866 25.1121H53.1726C53.4225 25.1121 53.4799 25.265 53.4799 25.5156V28.7648C53.4799 29.6105 53.3456 29.9752 53.1339 30.1869C52.8453 30.4756 52.2688 30.571 52.1152 30.7254C52.0571 30.7835 52.0383 30.8596 52.0383 30.9752C52.0383 31.4742 52.1152 31.9752 52.192 32.0514C52.2688 32.1289 52.3844 32.1475 52.6342 32.1475H58.0358C58.2856 32.1475 58.4005 32.1289 58.478 32.0514C58.5548 31.9752 58.6323 31.4742 58.6323 30.9752C58.6323 30.8596 58.6123 30.7835 58.5548 30.7254C58.4205 30.5911 57.824 30.4756 57.5354 30.1869C57.325 29.9752 57.2094 29.5717 57.2094 28.9177V19.941C57.2094 19.4801 57.3249 19.1714 57.4972 18.9998C57.8052 18.6918 58.4205 18.6337 58.5548 18.4987C58.6122 18.4413 58.6323 18.3264 58.6323 18.2302C58.6323 17.8842 58.5548 17.3651 58.478 17.2883C58.4005 17.2115 58.3243 17.1914 58.0358 17.1914H52.8259C52.6148 17.1914 52.5379 17.2114 52.4805 17.2696C52.423 17.3271 52.365 17.7305 52.365 18.2496C52.365 18.3451 52.3843 18.4606 52.423 18.4987C52.5187 18.5956 52.9996 18.7492 53.192 18.9416C53.4031 19.1534 53.4799 19.3839 53.4799 20.0372V22.5937C53.4799 22.6899 53.3837 22.8241 53.2495 22.8241H49.7891C49.6542 22.8241 49.5579 22.6899 49.5579 22.5937V20.0372C49.5579 19.3839 49.6347 19.1534 49.8465 18.9416C50.0389 18.7492 50.5193 18.5956 50.6155 18.4987C50.6542 18.4606 50.6735 18.3451 50.6735 18.2496C50.6735 17.7305 50.6154 17.3271 50.5579 17.2696C50.5005 17.2115 50.4231 17.1914 50.212 17.1914H45.0028C44.7143 17.1914 44.6374 17.2115 44.5599 17.2883C44.4839 17.3651 44.4062 17.8842 44.4062 18.2302C44.4062 18.3264 44.4257 18.4413 44.4838 18.4987C44.6181 18.6337 45.2333 18.6918 45.5406 18.9998C45.7136 19.1714 45.8292 19.4801 45.8292 19.941V28.9177C45.8292 29.5717 45.7135 29.9752 45.5024 30.1869C45.2139 30.4756 44.6181 30.5911 44.4838 30.7254C44.4257 30.7835 44.4062 30.8596 44.4062 30.9752C44.4062 31.4742 44.4839 31.9752 44.5599 32.0514C44.6374 32.1289 44.7143 32.1475 45.0028 32.1475H50.4044C50.6542 32.1475 50.7691 32.1289 50.8465 32.0514C50.9234 31.9752 50.9989 31.4742 50.9989 30.9752ZM68.8582 30.706C69.4153 30.1489 69.5509 29.8215 69.5509 29.5523C69.5509 29.2637 69.4734 29.0333 69.243 28.8029C68.9925 28.553 68.7821 28.5142 68.589 28.5142C68.3198 28.5142 68.2041 28.591 68.0318 28.7648C67.1861 29.6105 66.1094 30.0714 64.8021 30.0714C63.4761 30.0714 62.649 29.1876 62.649 28.6291C62.649 28.4762 62.7839 28.3412 63.1292 28.245C66.8207 27.0914 68.3585 26.3232 68.9351 25.746C69.2617 25.4387 69.3959 25.0733 69.3959 24.7467C69.3959 23.2857 67.2824 20.6912 64.0331 20.6912C62.6877 20.6912 61.323 21.2282 60.3042 22.2476C59.2855 23.2671 58.651 24.7079 58.651 26.6692C58.651 28.553 59.2469 29.8603 60.2849 30.8984C61.3231 31.9365 62.8221 32.4555 64.4566 32.4555C66.1287 32.4555 67.7052 31.8596 68.8582 30.706ZM74.875 21.3438C74.875 21.0946 74.74 20.9978 74.5289 20.9978H70.8188C70.607 20.9978 70.5308 20.9978 70.472 21.0753C70.396 21.1521 70.3199 21.6711 70.3199 22.0179C70.3199 22.1133 70.3579 22.1895 70.396 22.2476C70.5308 22.4206 70.8188 22.478 71.0694 22.6899C71.2417 22.8628 71.3191 23.2283 71.3191 23.7854V28.9177C71.3191 29.5717 71.2417 29.9946 71.0493 30.1869C70.7607 30.4756 70.2804 30.6098 70.1462 30.7441C70.108 30.7835 70.0886 30.8596 70.0886 30.9946C70.0886 31.4942 70.1655 31.9752 70.2424 32.0514C70.3005 32.1088 70.3959 32.1475 70.6069 32.1475H75.5484C75.7595 32.1475 75.8557 32.1088 75.9131 32.0514C75.9899 31.9752 76.0474 31.4942 76.0474 30.9946C76.0474 30.8596 76.0286 30.7835 75.9898 30.7441C75.8556 30.6098 75.4135 30.4756 75.1248 30.1869C74.9331 29.9946 74.875 29.5717 74.875 28.9177V21.3438ZM72.8181 16.5C71.7613 16.5 70.8956 17.3271 70.8956 18.3651C70.8956 19.4219 71.7613 20.2489 72.8181 20.2489C73.8951 20.2489 74.7601 19.4219 74.7601 18.3651C74.7601 17.3271 73.8951 16.5 72.8181 16.5ZM87.716 23.9778C87.716 21.8248 86.6016 20.7292 84.8518 20.7292C84.0248 20.7292 83.141 20.9978 82.2566 21.5369C81.9493 21.7293 81.8531 21.7867 81.7763 21.7867C81.4683 21.7867 81.68 20.9978 81.1222 20.9978H77.7394C77.5276 20.9978 77.4702 20.9978 77.3933 21.0753C77.2971 21.1715 77.2204 21.6711 77.2204 22.0179C77.2204 22.1133 77.2397 22.1895 77.2971 22.2476C77.4509 22.402 77.7394 22.4594 77.9698 22.6899C78.1435 22.8628 78.2189 23.2283 78.2189 23.7854V28.9177C78.2189 29.5717 78.1615 29.9946 77.9698 30.1869C77.7006 30.4554 77.2397 30.6098 77.1048 30.7441C77.0668 30.7835 77.0466 30.8596 77.0466 30.9946C77.0466 31.4942 77.1048 31.9752 77.1824 32.0514C77.2397 32.1088 77.3547 32.1475 77.5664 32.1475H82.4109C82.6413 32.1475 82.7174 32.1088 82.7748 32.0514C82.8717 31.9552 82.9492 31.4942 82.9492 30.9946C82.9492 30.8596 82.9292 30.7835 82.8904 30.7441C82.7375 30.5911 82.2953 30.4554 82.0261 30.1869C81.8337 29.9946 81.7382 29.5717 81.7382 28.9177V25.1314C81.7382 23.5743 82.6018 23.094 83.2372 23.094C83.8905 23.094 84.2559 23.5743 84.2559 24.5923V29.9184C84.2559 31.3406 85.1597 32.2818 86.7935 32.2818C88.6003 32.2818 89.3689 30.9752 89.3689 30.706C89.3689 30.4756 89.0039 30.014 88.7738 30.014C88.5037 30.014 88.1196 30.36 87.927 30.36C87.7928 30.36 87.716 30.2638 87.716 29.9565V23.9778ZM123.336 30.706C123.894 30.1489 124.028 29.8215 124.028 29.5523C124.028 29.2637 123.951 29.0333 123.721 28.8029C123.47 28.553 123.258 28.5142 123.067 28.5142C122.798 28.5142 122.682 28.591 122.509 28.7648C121.663 29.6105 120.587 30.0714 119.28 30.0714C117.954 30.0714 117.127 29.1876 117.127 28.6291C117.127 28.4762 117.261 28.3412 117.608 28.245C121.298 27.0914 122.836 26.3232 123.413 25.746C123.74 25.4387 123.874 25.0733 123.874 24.7467C123.874 23.2857 121.759 20.6912 118.511 20.6912C117.165 20.6912 115.8 21.2282 114.781 22.2476C113.763 23.2671 113.129 24.7079 113.129 26.6692C113.129 28.553 113.724 29.8603 114.762 30.8984C115.8 31.9365 117.3 32.4555 118.933 32.4555C120.606 32.4555 122.184 31.8596 123.336 30.706ZM120.472 24.766C120.472 25.4775 120.164 25.6893 119.011 26.092C118.088 26.4388 117.377 26.5924 117.165 26.5924C116.781 26.5924 116.608 26.3038 116.608 25.7079C116.608 24.2857 117.011 22.5556 118.511 22.5556C119.894 22.5556 120.472 24.0553 120.472 24.766ZM99.7113 30.706C100.268 30.1489 100.404 29.8215 100.404 29.5523C100.404 29.2637 100.326 29.0333 100.096 28.8029C99.846 28.553 99.6351 28.5142 99.4425 28.5142C99.1721 28.5142 99.0578 28.591 98.8848 28.7648C98.0387 29.6105 96.9618 30.0714 95.6547 30.0714C94.3286 30.0714 93.5016 29.1876 93.5016 28.6291C93.5016 28.4762 93.6371 28.3412 93.9828 28.245C97.6739 27.0914 99.2117 26.3232 99.7876 25.746C100.115 25.4387 100.249 25.0733 100.249 24.7467C100.249 23.2857 98.1354 20.6912 94.8863 20.6912C93.5405 20.6912 92.1755 21.2282 91.1572 22.2476C90.1381 23.2671 89.5036 24.7079 89.5036 26.6692C89.5036 28.553 90.0999 29.8603 91.1367 30.8984C92.1755 31.9365 93.6752 32.4555 95.3097 32.4555C96.9816 32.4555 98.5582 31.8596 99.7113 30.706ZM96.8475 24.766C96.8475 25.4775 96.5391 25.6893 95.3866 26.092C94.4629 26.4388 93.7522 26.5924 93.5404 26.5924C93.1558 26.5924 92.9836 26.3038 92.9836 25.7079C92.9836 24.2857 93.3873 22.5556 94.8863 22.5556C96.2702 22.5556 96.8475 24.0553 96.8475 24.766ZM135.33 23.9778C135.33 21.8248 134.216 20.7292 132.468 20.7292C131.64 20.7292 130.756 20.9978 129.872 21.5369C129.564 21.7293 129.468 21.7867 129.392 21.7867C129.084 21.7867 129.295 20.9978 128.738 20.9978H125.355C125.143 20.9978 125.085 20.9978 125.008 21.0753C124.912 21.1715 124.835 21.6711 124.835 22.0179C124.835 22.1133 124.855 22.1895 124.912 22.2476C125.067 22.402 125.355 22.4594 125.585 22.6899C125.757 22.8628 125.835 23.2283 125.835 23.7854V28.9177C125.835 29.5717 125.777 29.9946 125.585 30.1869C125.316 30.4554 124.855 30.6098 124.721 30.7441C124.682 30.7835 124.662 30.8596 124.662 30.9946C124.662 31.4942 124.721 31.9752 124.796 32.0514C124.855 32.1088 124.97 32.1475 125.182 32.1475H130.025C130.256 32.1475 130.333 32.1088 130.391 32.0514C130.487 31.9552 130.564 31.4942 130.564 30.9946C130.564 30.8596 130.545 30.7835 130.506 30.7441C130.352 30.5911 129.91 30.4554 129.641 30.1869C129.448 29.9946 129.352 29.5717 129.352 28.9177V25.1314C129.352 23.5743 130.218 23.094 130.852 23.094C131.506 23.094 131.871 23.5743 131.871 24.5923V29.9184C131.871 31.3406 132.775 32.2818 134.408 32.2818C136.216 32.2818 136.984 30.9752 136.984 30.706C136.984 30.4756 136.619 30.014 136.389 30.014C136.119 30.014 135.735 30.36 135.543 30.36C135.408 30.36 135.33 30.2638 135.33 29.9565V23.9778ZM105.15 16.8461H101.461C101.229 16.8461 101.133 16.8461 101.076 16.943C100.999 17.0385 100.941 17.5194 100.941 17.8461C100.941 17.961 100.961 18.0378 100.999 18.1146C101.133 18.2496 101.653 18.3838 101.884 18.615C102.075 18.8074 102.172 19.1915 102.172 20.6517V28.3412C102.172 29.6298 102.037 30.0333 101.884 30.1869C101.614 30.4554 101.153 30.6098 101.018 30.7441C100.98 30.7835 100.961 30.8596 100.961 30.9946C100.961 31.4942 101.018 31.9752 101.095 32.0514C101.153 32.1088 101.229 32.1475 101.48 32.1475H106.305C106.555 32.1475 106.631 32.1088 106.689 32.0514C106.766 31.9752 106.862 31.4942 106.862 30.9946C106.862 30.8596 106.843 30.7835 106.785 30.7441C106.651 30.6098 106.189 30.4554 105.939 30.1869C105.728 29.9946 105.651 29.5717 105.651 28.9177V28.4762C105.651 28.2263 105.728 28.1488 106.151 27.726C106.343 27.5537 106.515 27.4194 106.651 27.4194C106.843 27.4194 106.997 27.5536 109.111 31.8209C109.246 32.0901 109.303 32.1475 109.649 32.1475H112.782C113.013 32.1475 113.091 32.1088 113.148 32.0514C113.224 31.9752 113.301 31.4942 113.301 30.9946C113.301 30.8596 113.283 30.7835 113.243 30.7441C113.109 30.6098 112.302 30.5136 112.129 30.1869C109.342 25.4775 109.265 25.3231 109.265 25.0352C109.265 24.7854 110.496 23.5556 111.514 22.748C112.168 22.2289 112.59 22.5743 112.59 21.9597C112.59 21.2483 112.495 20.9978 112.359 20.9978H107.709C107.304 20.9978 107.266 21.2282 107.266 22.094C107.266 22.3818 108.073 22.4206 108.073 22.8241C108.073 23.1701 106.112 25.0546 105.786 25.0546C105.671 25.0546 105.651 24.9778 105.651 24.6505V17.3845C105.651 17.0765 105.439 16.8461 105.15 16.8461Z" fill="#0D0F2C"/>
<path d="M30.2059 13.8281L32.7577 21.5891L40.9274 21.6177L34.3348 26.443L36.8321 34.2216L30.2059 29.4428L23.5796 34.2216L26.0769 26.443L19.4844 21.6177L27.654 21.5891L30.2059 13.8281Z" fill="#0D0F2C"/>
<path d="M135.342 16.4375C135.664 16.4375 135.975 16.5187 136.271 16.6811C136.568 16.8418 136.801 17.0731 136.97 17.3749C137.141 17.6768 137.226 17.9925 137.226 18.3222C137.226 18.6503 137.142 18.9636 136.975 19.2621C136.81 19.559 136.578 19.7911 136.279 19.9584C135.982 20.1241 135.67 20.2069 135.342 20.2069C135.014 20.2069 134.7 20.1241 134.401 19.9584C134.104 19.7911 133.872 19.559 133.705 19.2621C133.54 18.9636 133.457 18.6503 133.457 18.3222C133.457 17.9925 133.541 17.6768 133.71 17.3749C133.881 17.0731 134.114 16.8418 134.411 16.6811C134.709 16.5187 135.018 16.4375 135.342 16.4375ZM135.344 16.8066C135.085 16.8066 134.837 16.8714 134.599 17.0009C134.361 17.1305 134.173 17.3167 134.035 17.5595C133.899 17.8022 133.831 18.0565 133.831 18.3222C133.831 18.5863 133.897 18.8381 134.03 19.0776C134.165 19.3171 134.352 19.5041 134.591 19.6386C134.831 19.7731 135.082 19.8403 135.344 19.8403C135.609 19.8403 135.859 19.7731 136.097 19.6386C136.336 19.5041 136.524 19.3171 136.658 19.0776C136.793 18.8381 136.86 18.5863 136.86 18.3222C136.86 18.0565 136.791 17.8022 136.653 17.5595C136.517 17.3167 136.329 17.1305 136.09 17.0009C135.852 16.8714 135.603 16.8066 135.344 16.8066ZM134.49 19.331V17.3306H134.897C135.277 17.3306 135.49 17.3323 135.536 17.3356C135.67 17.3471 135.775 17.3742 135.849 17.4168C135.924 17.4578 135.987 17.5218 136.035 17.6087C136.087 17.694 136.112 17.7892 136.112 17.8941C136.112 18.0385 136.064 18.1623 135.969 18.2657C135.876 18.3674 135.743 18.4305 135.573 18.4551C135.634 18.4781 135.68 18.5035 135.713 18.5314C135.746 18.5577 135.791 18.6085 135.849 18.684C135.863 18.7036 135.912 18.7848 135.996 18.9275L136.233 19.3311H135.73L135.563 19.0063C135.45 18.7881 135.357 18.6511 135.282 18.5954C135.209 18.538 135.115 18.5093 135.002 18.5093H134.897V19.3311L134.49 19.331ZM134.897 18.1943H135.062C135.296 18.1943 135.441 18.1853 135.497 18.1672C135.554 18.1492 135.599 18.118 135.632 18.0737C135.665 18.0278 135.682 17.9762 135.682 17.9187C135.682 17.863 135.665 17.8138 135.632 17.7711C135.601 17.7268 135.556 17.6957 135.497 17.6776C135.438 17.658 135.292 17.6481 135.062 17.6481H134.897V18.1943Z" fill="#0D0F2C"/>
</g>
</g>
</g>
<defs>
<clipPath id="clip0_5242_26171">
<rect width="158.39" height="48" fill="white"/>
</clipPath>
</defs>
</svg>
