<svg width="159" height="48" viewBox="0 0 159 48" fill="none" xmlns="http://www.w3.org/2000/svg">
<g clip-path="url(#clip0_5242_26387)">
<path d="M50.0685 26.8672C49.5115 26.8672 49.001 27.1457 48.7225 27.6098C48.444 28.0739 48.444 28.6773 48.7225 29.1414C49.001 29.6055 49.5115 29.9072 50.0685 29.884C50.9039 29.8608 51.5537 29.1878 51.5537 28.3756C51.5769 27.5634 50.9039 26.8904 50.0685 26.8672Z" fill="#0D0F2C"/>
<path d="M48.1413 30.8047C47.4219 30.8047 46.8418 31.3848 46.8418 32.081C46.8418 32.8004 47.4219 33.3806 48.1413 33.3806C48.8607 33.3806 49.4409 32.8004 49.4409 32.081C49.4409 31.3848 48.8607 30.8047 48.1413 30.8047Z" fill="#0D0F2C"/>
<path d="M45.3228 36.1178C45.9376 36.0973 46.4195 35.5823 46.399 34.9675C46.3785 34.3527 45.8635 33.8708 45.2487 33.8913C44.6338 33.9118 44.152 34.4268 44.1725 35.0416C44.193 35.6565 44.708 36.1383 45.3228 36.1178Z" fill="#0D0F2C"/>
<path d="M42.0632 35.9844C41.5527 35.9844 41.1582 36.3789 41.1582 36.8895C41.1582 37.4 41.5527 37.7945 42.0632 37.7945C42.5738 37.7945 42.9683 37.4 42.9683 36.8895C42.9683 36.3789 42.5738 35.9844 42.0632 35.9844Z" fill="#0D0F2C"/>
<path d="M38.9045 37.0703C38.4868 37.0703 38.1387 37.4184 38.1387 37.8361C38.1387 38.2538 38.4868 38.6019 38.9045 38.6019C39.3223 38.6019 39.6704 38.2538 39.6704 37.8361C39.6936 37.4184 39.3455 37.0703 38.9045 37.0703Z" fill="#0D0F2C"/>
<path d="M35.9562 37.5156C35.5849 37.5156 35.2832 37.8173 35.2832 38.1886C35.2832 38.5599 35.5849 38.8616 35.9562 38.8616C36.3275 38.8616 36.6291 38.5599 36.6291 38.1886C36.6059 37.8173 36.3043 37.5156 35.9562 37.5156Z" fill="#0D0F2C"/>
<path d="M32.9865 37.0703C32.5688 37.0703 32.2207 37.4184 32.2207 37.8361C32.2207 38.2538 32.5688 38.6019 32.9865 38.6019C33.4042 38.6019 33.7523 38.2538 33.7523 37.8361C33.7523 37.4184 33.4042 37.0703 32.9865 37.0703Z" fill="#0D0F2C"/>
<path d="M29.8307 35.9531C29.5058 35.9531 29.2042 36.1156 29.0417 36.394C28.8793 36.6725 28.8793 37.0206 29.0417 37.2991C29.2042 37.5776 29.5058 37.74 29.8307 37.74C30.3181 37.74 30.7358 37.3455 30.7358 36.835C30.7126 36.3708 30.3181 35.9763 29.8307 35.9531Z" fill="#0D0F2C"/>
<path d="M26.6059 33.8906C26.2114 33.8906 25.8401 34.0995 25.6312 34.4476C25.4224 34.7957 25.4224 35.2134 25.6312 35.5615C25.8401 35.9096 26.1882 36.1184 26.6059 36.1184C27.2093 36.1184 27.7198 35.6311 27.7198 35.0045C27.7198 34.4012 27.2325 33.8906 26.6059 33.8906Z" fill="#0D0F2C"/>
<path d="M23.7507 30.8047C23.0313 30.8047 22.4512 31.3848 22.4512 32.1042C22.4512 32.8236 23.0313 33.4038 23.7507 33.4038C24.4701 33.4038 25.0503 32.8236 25.0503 32.1042C25.027 31.3848 24.4701 30.8047 23.7507 30.8047Z" fill="#0D0F2C"/>
<path d="M21.8263 26.8606C21.2694 26.8374 20.7588 27.1391 20.4803 27.6032C20.2019 28.0674 20.2019 28.6707 20.4803 29.1349C20.7588 29.599 21.2694 29.9007 21.8263 29.8775C22.6617 29.8543 23.3115 29.1813 23.3115 28.369C23.3115 27.5568 22.6385 26.8838 21.8263 26.8606Z" fill="#0D0F2C"/>
<path d="M21.1289 21.9375C20.1543 21.9375 19.3652 22.7265 19.3652 23.7012C19.3652 24.6759 20.1543 25.4649 21.1289 25.4649C22.1036 25.4649 22.8926 24.6759 22.8926 23.7012C22.8694 22.7265 22.1036 21.9375 21.1289 21.9375Z" fill="#0D0F2C"/>
<path d="M21.8263 17.4844C21.2694 17.4844 20.7588 17.7628 20.4803 18.227C20.2019 18.6911 20.2019 19.2945 20.4803 19.7586C20.7588 20.2227 21.2694 20.5244 21.8263 20.5012C22.6617 20.478 23.3115 19.805 23.3115 18.9928C23.3115 18.1806 22.6385 17.5076 21.8263 17.4844Z" fill="#0D0F2C"/>
<path d="M23.7506 13.9844C23.2865 13.9844 22.8456 14.2165 22.6135 14.6342C22.3814 15.0287 22.3814 15.5393 22.6135 15.9338C22.8456 16.3283 23.2865 16.5835 23.7506 16.5835C24.4468 16.5603 25.0269 16.0034 25.0269 15.284C25.0037 14.5878 24.4468 14.0076 23.7506 13.9844Z" fill="#0D0F2C"/>
<path d="M26.6002 11.2422C25.9968 11.2422 25.4863 11.7296 25.4863 12.3561C25.4863 12.9595 25.9736 13.4701 26.6002 13.4701C27.2036 13.4701 27.7141 12.9827 27.7141 12.3561C27.7141 11.7528 27.2268 11.2422 26.6002 11.2422Z" fill="#0D0F2C"/>
<path d="M29.8288 9.60156C29.3415 9.60156 28.9238 9.99607 28.9238 10.5066C28.9238 10.9939 29.3183 11.4117 29.8288 11.4117C30.3162 11.4117 30.7339 11.0171 30.7339 10.5066C30.7107 10.0193 30.3162 9.60156 29.8288 9.60156Z" fill="#0D0F2C"/>
<path d="M32.9863 8.75781C32.5454 8.75781 32.1973 9.1059 32.1973 9.54682C32.1973 9.98774 32.5454 10.3358 32.9863 10.3358C33.4041 10.3358 33.7522 9.98774 33.7522 9.57003C33.729 9.1059 33.4041 8.75781 32.9863 8.75781Z" fill="#0D0F2C"/>
<path d="M35.9328 8.51562C35.5615 8.51562 35.2598 8.81731 35.2598 9.18861C35.2598 9.55992 35.5615 9.8616 35.9328 9.8616C36.3041 9.8616 36.6058 9.55992 36.6058 9.18861C36.6058 8.81731 36.3041 8.51562 35.9328 8.51562Z" fill="#0D0F2C"/>
<path d="M38.9045 8.75781C38.4868 8.75781 38.1387 9.1059 38.1387 9.52362C38.1387 9.94133 38.4868 10.2894 38.9045 10.2894C39.3223 10.2894 39.6704 9.94133 39.6704 9.52362C39.6936 9.1059 39.3455 8.75781 38.9045 8.75781Z" fill="#0D0F2C"/>
<path d="M42.0613 9.60156C41.7364 9.60156 41.4347 9.764 41.2723 10.0425C41.1098 10.321 41.1098 10.6691 41.2723 10.9475C41.4347 11.226 41.7364 11.3884 42.0613 11.3884C42.5486 11.3884 42.9664 10.9939 42.9664 10.4834C42.9664 9.97286 42.5718 9.60156 42.0613 9.60156Z" fill="#0D0F2C"/>
<path d="M45.2877 11.2656C44.6843 11.2656 44.1738 11.753 44.1738 12.3795C44.1738 12.9829 44.6611 13.4934 45.2877 13.4934C45.8911 13.4934 46.4016 13.0061 46.4016 12.3795C46.4016 11.753 45.8911 11.2656 45.2877 11.2656Z" fill="#0D0F2C"/>
<path d="M48.1413 13.9844C47.4219 13.9844 46.8418 14.5646 46.8418 15.284C46.8418 16.0034 47.4219 16.5835 48.1413 16.5835C48.8607 16.5835 49.4409 16.0034 49.4409 15.284C49.4409 14.5646 48.8607 13.9844 48.1413 13.9844Z" fill="#0D0F2C"/>
<path d="M50.0685 17.4844C49.5115 17.4844 49.001 17.7628 48.7225 18.227C48.444 18.6911 48.444 19.2945 48.7225 19.7586C49.001 20.2227 49.5115 20.5244 50.0685 20.5012C50.9039 20.478 51.5537 19.805 51.5537 18.9928C51.5537 18.1574 50.9039 17.4844 50.0685 17.4844Z" fill="#0D0F2C"/>
<path d="M43.1064 26C42.8511 26 42.619 26.116 42.503 26.3249C42.387 26.5338 42.387 26.8122 42.503 27.0211C42.619 27.2299 42.8511 27.3692 43.1064 27.346C43.4777 27.3228 43.7562 27.0211 43.7562 26.673C43.7794 26.3249 43.4777 26.0232 43.1064 26Z" fill="#0D0F2C"/>
<path d="M41.4072 28.5312C41.1519 28.5312 40.9198 28.6473 40.8038 28.8561C40.6878 29.065 40.6878 29.3435 40.8038 29.5523C40.9198 29.7612 41.1751 29.9004 41.4072 29.8772C41.7785 29.854 42.0569 29.5524 42.0569 29.2043C42.0569 28.8562 41.7785 28.5545 41.4072 28.5312Z" fill="#0D0F2C"/>
<path d="M38.885 30.1562C38.6298 30.1562 38.3745 30.2954 38.2353 30.5275C38.096 30.7596 38.096 31.0381 38.2353 31.2702C38.3745 31.5023 38.6066 31.6415 38.885 31.6415C39.3027 31.6415 39.6276 31.3166 39.6276 30.8989C39.6276 30.4812 39.3027 30.1562 38.885 30.1562Z" fill="#0D0F2C"/>
<path d="M35.91 30.5938C35.353 30.5938 34.9121 31.0347 34.9121 31.5917C34.9121 32.1486 35.353 32.5895 35.91 32.5895C36.4669 32.5895 36.9078 32.1486 36.9078 31.5917C36.8846 31.0347 36.4437 30.5938 35.91 30.5938Z" fill="#0D0F2C"/>
<path d="M32.9164 29.9922C32.2898 29.9922 31.7793 30.5027 31.7793 31.1293C31.7793 31.7559 32.2898 32.2664 32.9164 32.2664C33.5429 32.2664 34.0535 31.7559 34.0535 31.1293C34.0535 30.5027 33.5429 29.9922 32.9164 29.9922Z" fill="#0D0F2C"/>
<path d="M30.2238 28.0938C29.5276 28.0938 28.9707 28.6506 28.9707 29.3468C28.9707 30.043 29.5276 30.6 30.2238 30.6C30.92 30.6 31.477 30.043 31.477 29.3468C31.477 28.6506 30.92 28.0938 30.2238 28.0938Z" fill="#0D0F2C"/>
<path d="M28.4369 25.5391C27.8568 25.5391 27.3926 26.0032 27.3926 26.5834C27.3926 27.1636 27.8568 27.6277 28.4369 27.6277C29.0171 27.6277 29.4812 27.1636 29.4812 26.5834C29.5044 26.0265 29.0171 25.5391 28.4369 25.5391Z" fill="#0D0F2C"/>
<path d="M28.0174 22.75C27.5764 22.75 27.2051 23.1213 27.2051 23.5622C27.2051 24.0031 27.5764 24.3744 28.0174 24.3744C28.4583 24.3744 28.8296 24.0031 28.8296 23.5622C28.8296 23.0981 28.4815 22.75 28.0174 22.75Z" fill="#0D0F2C"/>
<path d="M28.7375 20.0156C28.3662 20.0156 28.0645 20.3173 28.0645 20.6886C28.0645 21.0599 28.3662 21.3616 28.7375 21.3616C29.1088 21.3616 29.4105 21.0599 29.4105 20.6886C29.4337 20.3173 29.1088 20.0156 28.7375 20.0156Z" fill="#0D0F2C"/>
<path d="M30.458 17.5078C30.2028 17.5078 29.9707 17.6238 29.8547 17.8327C29.7386 18.0415 29.7386 18.32 29.8547 18.5288C29.9707 18.7377 30.226 18.8769 30.458 18.8537C30.8293 18.8537 31.131 18.5521 31.131 18.1808C31.1078 17.8094 30.8061 17.5078 30.458 17.5078Z" fill="#0D0F2C"/>
<path d="M32.9633 15.7422C32.5456 15.7422 32.2207 16.0671 32.2207 16.4848C32.2207 16.9026 32.5456 17.2274 32.9633 17.2274C33.381 17.2274 33.7059 16.9026 33.7059 16.4848C33.7059 16.0903 33.381 15.7422 32.9633 15.7422Z" fill="#0D0F2C"/>
<path d="M36.9521 15.8253C36.9733 15.2746 36.544 14.811 35.9933 14.7898C35.4425 14.7687 34.9789 15.198 34.9578 15.7487C34.9366 16.2994 35.3659 16.763 35.9167 16.7842C36.4674 16.8053 36.931 16.376 36.9521 15.8253Z" fill="#0D0F2C"/>
<path d="M38.9242 15.1172C38.2976 15.1172 37.7871 15.6278 37.7871 16.2543C37.7871 16.8809 38.2976 17.3915 38.9242 17.3915C39.5508 17.3915 40.0613 16.8809 40.0613 16.2543C40.0613 15.6278 39.5508 15.1172 38.9242 15.1172Z" fill="#0D0F2C"/>
<path d="M41.6183 16.7891C40.9222 16.7891 40.3652 17.346 40.3652 18.0422C40.3652 18.7384 40.9222 19.2953 41.6183 19.2953C42.3145 19.2953 42.8715 18.7384 42.8715 18.0422C42.8715 17.346 42.3145 16.7891 41.6183 16.7891Z" fill="#0D0F2C"/>
<path d="M43.4056 19.7422C42.8254 19.7422 42.3613 20.2063 42.3613 20.7865C42.3613 21.3666 42.8254 21.8308 43.4056 21.8308C43.9857 21.8308 44.4499 21.3666 44.4499 20.7865C44.4499 20.2063 43.9857 19.7422 43.4056 19.7422Z" fill="#0D0F2C"/>
<path d="M40.6715 25.6125C41.0175 25.6125 41.298 25.332 41.298 24.9859C41.298 24.6399 41.0175 24.3594 40.6715 24.3594C40.3254 24.3594 40.0449 24.6399 40.0449 24.9859C40.0449 25.332 40.3254 25.6125 40.6715 25.6125Z" fill="#0D0F2C"/>
<path d="M39.442 26.3125C38.9315 26.3125 38.5137 26.7302 38.5137 27.2407C38.5137 27.7513 38.9315 28.169 39.442 28.169C39.9525 28.169 40.3702 27.7513 40.3702 27.2407C40.3935 26.7302 39.9757 26.3125 39.442 26.3125Z" fill="#0D0F2C"/>
<path d="M37.0509 27.5625C36.5172 27.5625 36.0762 28.0034 36.0762 28.5372C36.0762 29.0709 36.5172 29.5118 37.0509 29.5118C37.5847 29.5118 38.0256 29.0709 38.0256 28.5372C38.0256 28.0034 37.5847 27.5625 37.0509 27.5625Z" fill="#0D0F2C"/>
<path d="M34.2179 27.4922C33.9162 27.4922 33.6146 27.6547 33.4753 27.9332C33.3129 28.2116 33.3129 28.5365 33.4753 28.7918C33.6378 29.0703 33.9162 29.2327 34.2179 29.2327C34.7053 29.2327 35.0766 28.8382 35.0766 28.3741C35.0998 27.8868 34.7053 27.4922 34.2179 27.4922Z" fill="#0D0F2C"/>
<path d="M32.1286 26.0625C31.7805 26.0625 31.502 26.341 31.502 26.6891C31.502 27.0372 31.7805 27.3157 32.1286 27.3157C32.4767 27.3157 32.7552 27.0372 32.7552 26.6891C32.7784 26.3642 32.4767 26.0625 32.1286 26.0625Z" fill="#0D0F2C"/>
<path d="M31.2943 24.2344C31.039 24.2344 30.8301 24.4432 30.8301 24.6985C30.8301 24.9538 31.039 25.1626 31.2943 25.1626C31.5495 25.1626 31.7584 24.9538 31.7584 24.6985C31.7584 24.4432 31.5495 24.2344 31.2943 24.2344Z" fill="#0D0F2C"/>
<path d="M31.2457 21.8516C30.8976 21.8516 30.6191 22.13 30.6191 22.4781C30.6191 22.8262 30.8976 23.1047 31.2457 23.1047C31.5938 23.1047 31.8723 22.8262 31.8723 22.4781C31.8723 22.13 31.5938 21.8516 31.2457 21.8516Z" fill="#0D0F2C"/>
<path d="M32.4731 19.2734C31.9626 19.2734 31.5449 19.6912 31.5449 20.2017C31.5449 20.7122 31.9626 21.13 32.4731 21.13C32.9837 21.13 33.4014 20.7122 33.4014 20.2017C33.4014 19.6912 32.9837 19.2734 32.4731 19.2734Z" fill="#0D0F2C"/>
<path d="M34.8673 17.9297C34.3336 17.9297 33.8926 18.3707 33.8926 18.9044C33.8926 19.4382 34.3336 19.8791 34.8673 19.8791C35.4011 19.8791 35.842 19.4382 35.842 18.9044C35.842 18.3707 35.4011 17.9297 34.8673 17.9297Z" fill="#0D0F2C"/>
<path d="M37.6943 18.2266C37.3694 18.2266 37.0909 18.389 36.9284 18.6443C36.766 18.9228 36.766 19.2476 36.9284 19.5261C37.0909 19.8046 37.3926 19.967 37.6943 19.9438C38.1584 19.9206 38.5297 19.5493 38.5297 19.0852C38.5297 18.6211 38.1584 18.2498 37.6943 18.2266Z" fill="#0D0F2C"/>
<path d="M39.7653 20.0859C39.4172 20.0859 39.1387 20.3644 39.1387 20.7125C39.1387 21.0606 39.4172 21.339 39.7653 21.339C40.1134 21.339 40.3919 21.0606 40.3919 20.7125C40.4151 20.3644 40.1366 20.0859 39.7653 20.0859Z" fill="#0D0F2C"/>
<path d="M40.6457 22.2969C40.3905 22.2969 40.1816 22.5057 40.1816 22.761C40.1816 23.0163 40.3905 23.2251 40.6457 23.2251C40.901 23.2251 41.1099 23.0163 41.1099 22.761C41.1099 22.5057 40.901 22.2969 40.6457 22.2969Z" fill="#0D0F2C"/>
<path d="M43.826 23.0078C43.385 23.0078 43.0137 23.3791 43.0137 23.82C43.0137 24.2609 43.385 24.6322 43.826 24.6322C44.2669 24.6322 44.6382 24.2609 44.6382 23.82C44.6382 23.3791 44.2669 23.0078 43.826 23.0078Z" fill="#0D0F2C"/>
<path d="M47.1926 24.0078C46.7053 24.0078 46.334 24.4023 46.334 24.8665C46.334 25.3538 46.7285 25.7251 47.1926 25.7251C47.6799 25.7251 48.0512 25.3306 48.0512 24.8665C48.0512 24.4023 47.6799 24.0078 47.1926 24.0078Z" fill="#0D0F2C"/>
<path d="M46.3299 27.0469C45.8889 27.0469 45.5176 27.4182 45.5176 27.8591C45.5176 28.3 45.8889 28.6713 46.3299 28.6713C46.7708 28.6713 47.1421 28.3 47.1421 27.8591C47.1421 27.4182 46.794 27.0469 46.3299 27.0469Z" fill="#0D0F2C"/>
<path d="M44.87 29.6016C44.4987 29.6016 44.1738 29.9033 44.1738 30.2978C44.1738 30.6691 44.4755 30.994 44.87 30.994C45.2413 30.994 45.543 30.6691 45.543 30.2978C45.543 29.9265 45.2413 29.6248 44.87 29.6016Z" fill="#0D0F2C"/>
<path d="M43.1032 31.5078C42.8943 31.5078 42.6854 31.6238 42.5694 31.8095C42.4534 31.9951 42.4534 32.2272 42.5694 32.4129C42.6854 32.5985 42.8711 32.7145 43.1032 32.7145C43.428 32.7145 43.7065 32.4593 43.7065 32.1112C43.7065 31.7863 43.428 31.5078 43.1032 31.5078Z" fill="#0D0F2C"/>
<path d="M41.2468 32.8906C40.9684 32.8906 40.7363 33.1226 40.7363 33.4011C40.7363 33.6796 40.9684 33.9117 41.2468 33.9117C41.5253 33.9117 41.7574 33.6796 41.7574 33.4011C41.7574 33.1226 41.5253 32.8906 41.2468 32.8906Z" fill="#0D0F2C"/>
<path d="M39.1326 33.6797C38.8077 33.6797 38.5293 33.935 38.5293 34.2831C38.5293 34.608 38.7845 34.8865 39.1326 34.8865C39.4575 34.8865 39.736 34.6312 39.736 34.2831C39.7128 33.935 39.4575 33.6797 39.1326 33.6797Z" fill="#0D0F2C"/>
<path d="M36.6513 34.0781C36.28 34.0781 35.9551 34.3798 35.9551 34.7743C35.9551 35.1456 36.2568 35.4705 36.6513 35.4705C37.0226 35.4705 37.3475 35.1688 37.3475 34.7743C37.3243 34.3798 37.0226 34.0781 36.6513 34.0781Z" fill="#0D0F2C"/>
<path d="M33.8214 33.8047C33.334 33.8047 32.9395 34.1992 32.9395 34.6865C32.9395 35.1739 33.334 35.5684 33.8214 35.5684C34.3087 35.5684 34.7032 35.1739 34.7032 34.6865C34.7032 34.1992 34.3087 33.8047 33.8214 33.8047Z" fill="#0D0F2C"/>
<path d="M30.8275 32.7344C30.2473 32.7344 29.7832 33.1986 29.7832 33.7787C29.7832 34.3589 30.2473 34.823 30.8275 34.823C31.4076 34.823 31.8717 34.3589 31.8717 33.7787C31.895 33.1986 31.4076 32.7344 30.8275 32.7344Z" fill="#0D0F2C"/>
<path d="M28.2081 30.7344C27.7672 30.7344 27.3494 30.9664 27.1174 31.3377C26.8853 31.7323 26.8853 32.1964 27.1174 32.5909C27.3494 32.9854 27.7672 33.2175 28.2081 33.1943C28.8811 33.171 29.4148 32.6373 29.4148 31.9643C29.4148 31.3145 28.8811 30.7576 28.2081 30.7344Z" fill="#0D0F2C"/>
<path d="M26.0041 27.7656C25.2615 27.7656 24.6582 28.369 24.6582 29.1116C24.6582 29.8542 25.2615 30.4576 26.0041 30.4576C26.7467 30.4576 27.3501 29.8542 27.3501 29.1116C27.3501 28.3458 26.7467 27.7656 26.0041 27.7656Z" fill="#0D0F2C"/>
<path d="M25.8198 25.7839C25.8616 25.1959 25.4188 24.6852 24.8307 24.6434C24.2426 24.6016 23.732 25.0445 23.6902 25.6326C23.6484 26.2207 24.0912 26.7313 24.6793 26.7731C25.2674 26.8149 25.778 26.372 25.8198 25.7839Z" fill="#0D0F2C"/>
<path d="M25.55 22.539C25.5762 22.0655 25.2136 21.6604 24.7401 21.6342C24.2666 21.6079 23.8615 21.9705 23.8353 22.444C23.809 22.9175 24.1716 23.3226 24.6451 23.3489C25.1186 23.3751 25.5237 23.0125 25.55 22.539Z" fill="#0D0F2C"/>
<path d="M25.5602 18.6875C25.1193 18.6875 24.748 19.0588 24.748 19.4997C24.748 19.9406 25.1193 20.3119 25.5602 20.3119C26.0012 20.3119 26.3725 19.9406 26.3725 19.4997C26.3725 19.0588 26.0012 18.6875 25.5602 18.6875Z" fill="#0D0F2C"/>
<path d="M27.0244 16.3906C26.7692 16.3906 26.5371 16.5067 26.4211 16.7387C26.305 16.9476 26.305 17.2261 26.4211 17.4349C26.5371 17.6438 26.7924 17.783 27.0244 17.783C27.3957 17.783 27.6974 17.4581 27.6974 17.0868C27.6974 16.6923 27.3957 16.3906 27.0244 16.3906Z" fill="#0D0F2C"/>
<path d="M28.785 14.6797C28.4601 14.6797 28.1816 14.935 28.1816 15.283C28.1816 15.6079 28.4369 15.8864 28.785 15.8864C29.1331 15.8864 29.3883 15.6311 29.3883 15.283C29.3883 14.9582 29.1099 14.6797 28.785 14.6797Z" fill="#0D0F2C"/>
<path d="M30.6415 13.4766C30.363 13.4766 30.1309 13.7087 30.1309 13.9872C30.1309 14.2656 30.363 14.4977 30.6415 14.4977C30.9199 14.4977 31.152 14.2656 31.152 13.9872C31.152 13.6855 30.9199 13.4766 30.6415 13.4766Z" fill="#0D0F2C"/>
<path d="M32.7537 12.5156C32.4288 12.5156 32.1504 12.7709 32.1504 13.119C32.1504 13.4439 32.4056 13.7224 32.7537 13.7224C33.0786 13.7224 33.3571 13.4671 33.3571 13.119C33.3571 12.7709 33.0786 12.5156 32.7537 12.5156Z" fill="#0D0F2C"/>
<path d="M35.2353 11.9141C34.98 11.9141 34.7479 12.0301 34.6319 12.2622C34.5159 12.4711 34.5159 12.7495 34.6319 12.9584C34.7479 13.1673 35.0032 13.3065 35.2353 13.3065C35.6066 13.3065 35.9083 12.9816 35.9083 12.6103C35.9083 12.239 35.6066 11.9373 35.2353 11.9141Z" fill="#0D0F2C"/>
<path d="M38.069 11.7969C37.7441 11.7969 37.4424 11.9594 37.28 12.2378C37.1176 12.5163 37.1176 12.8644 37.28 13.1429C37.4424 13.4214 37.7441 13.5838 38.069 13.5838C38.5564 13.5838 38.9509 13.1661 38.9509 12.6788C38.9509 12.1914 38.5564 11.7969 38.069 11.7969Z" fill="#0D0F2C"/>
<path d="M40.964 12.4688C40.3839 12.4688 39.8965 12.9329 39.8965 13.5363C39.8965 14.1165 40.3607 14.6038 40.964 14.6038C41.5442 14.6038 42.0315 14.1397 42.0315 13.5363C42.0315 12.9561 41.5442 12.4688 40.964 12.4688Z" fill="#0D0F2C"/>
<path d="M43.7084 14.1406C43.0122 14.1406 42.4785 14.6975 42.4785 15.3705C42.4785 16.0435 43.0354 16.6005 43.7084 16.6005C44.4046 16.6005 44.9384 16.0435 44.9384 15.3705C44.9384 14.6975 44.3814 14.1406 43.7084 14.1406Z" fill="#0D0F2C"/>
<path d="M45.8886 16.9297C45.4013 16.9297 44.9604 17.185 44.7051 17.6027C44.4498 18.0204 44.4498 18.5309 44.7051 18.9486C44.9604 19.3664 45.4013 19.6216 45.8886 19.6216C46.6312 19.5984 47.2114 19.0183 47.2114 18.2757C47.1882 17.5563 46.608 16.9529 45.8886 16.9297Z" fill="#0D0F2C"/>
<path d="M47.1163 20.6172C46.745 20.6172 46.3737 20.8028 46.188 21.1277C46.0024 21.4526 46.0024 21.8703 46.188 22.1952C46.3737 22.5201 46.745 22.729 47.1163 22.7058C47.6964 22.6826 48.1374 22.2184 48.1374 21.6615C48.1374 21.1045 47.6964 20.6404 47.1163 20.6172Z" fill="#0D0F2C"/>
<path d="M52.5254 23.6856C52.5254 24.6603 51.7364 25.4493 50.7617 25.4493C49.787 25.4493 48.998 24.6603 48.998 23.6856C48.998 22.7109 49.787 21.9219 50.7617 21.9219C51.7364 21.9451 52.5254 22.7341 52.5254 23.6856Z" fill="#0D0F2C"/>
<path d="M139.366 26.3938C139.366 24.7229 138.415 23.8411 136.93 23.2377C135.769 22.7736 134.748 22.3791 133.959 22.0542C133.193 21.7525 132.52 21.2188 132.52 20.6386C132.52 19.8496 133.495 19.3855 134.795 19.3855C136.326 19.3855 137.533 19.5943 138.67 19.7103H138.717C138.902 19.7103 139.018 19.5711 139.018 19.3855V18.0859C139.018 17.9234 138.879 17.7842 138.693 17.761C138.09 17.6218 136.558 17.2969 134.887 17.2969C131.639 17.2969 130.084 18.6893 130.084 20.6386C130.084 21.8685 130.617 23.0753 132.149 23.7018C133.681 24.3284 136.814 25.071 136.814 26.3706C136.814 27.3917 136.349 27.9486 134.771 27.9486C133.147 27.9486 131.499 27.7166 130.803 27.6237H130.757C130.571 27.6237 130.432 27.763 130.432 27.9486V29.2018C130.432 29.3874 130.594 29.5266 130.757 29.5499C131.592 29.7355 133.17 30.014 134.725 30.014C138.276 30.0604 139.366 28.1575 139.366 26.3938Z" fill="#0D0F2C"/>
<path d="M105.022 19.4875H101.517V29.5591C101.517 29.7447 101.355 29.9071 101.169 29.9071H99.4288C99.2432 29.9071 99.0807 29.7447 99.0807 29.5591V19.4875H95.5766C95.3909 19.4875 95.2285 19.3714 95.2285 19.1626V17.7702C95.2285 17.5846 95.3909 17.4453 95.5766 17.4453H105.022C105.207 17.4453 105.37 17.5846 105.37 17.7702V19.1626C105.37 19.3714 105.207 19.4875 105.022 19.4875Z" fill="#0D0F2C"/>
<path d="M93.6944 25.0958V17.7858C93.6944 17.6001 93.532 17.4609 93.3463 17.4609H91.6059C91.4202 17.4609 91.2578 17.6001 91.2578 17.7858V25.0726C91.2578 27.0683 90.3295 28.0198 88.4498 28.0198C86.5701 28.0198 85.6418 27.0683 85.6418 25.0726V17.7858C85.6418 17.6001 85.4794 17.4609 85.2937 17.4609H83.5532C83.3676 17.4609 83.2051 17.6001 83.2051 17.7858V25.0726C83.2051 28.8088 85.6418 30.0388 88.4498 30.0388C91.2578 30.0388 93.6944 28.832 93.6944 25.0958Z" fill="#0D0F2C"/>
<path d="M109.408 24.4911H115.023C115.209 24.4911 115.371 24.3287 115.371 24.143V22.8667C115.371 22.681 115.209 22.5186 115.023 22.5186H109.408V20.9173C109.408 19.4553 109.454 19.4089 110.8 19.4089H115.232C115.418 19.4089 115.58 19.2465 115.58 19.0608V17.9469C115.58 17.6916 115.487 17.622 115.232 17.5756C114.675 17.4828 113.538 17.3203 111.45 17.3203C108.549 17.3203 106.994 17.2971 106.994 20.9173V26.4636C106.994 30.0838 108.549 30.0606 111.45 30.0606C113.538 30.0606 114.675 29.8982 115.232 29.8054C115.487 29.7822 115.58 29.6893 115.58 29.4341V28.3202C115.58 28.1345 115.418 27.9721 115.232 27.9721H110.8C109.477 27.9721 109.408 27.9256 109.408 26.4636V24.4911Z" fill="#0D0F2C"/>
<path d="M74.7552 24.4911H80.3712C80.5568 24.4911 80.7193 24.3287 80.7193 24.143V22.8667C80.7193 22.681 80.5568 22.5186 80.3712 22.5186H74.7552V20.9173C74.7552 19.4553 74.8016 19.4089 76.1476 19.4089H80.58C80.7657 19.4089 80.9281 19.2465 80.9281 19.0608V17.9469C80.9281 17.6916 80.8353 17.622 80.58 17.5756C80.0231 17.4828 78.886 17.3203 76.7974 17.3203C73.8966 17.3203 72.3418 17.2971 72.3418 20.9173V26.4636C72.3418 30.0838 73.8966 30.0606 76.7974 30.0606C78.886 30.0606 80.0231 29.8982 80.58 29.8054C80.8353 29.7822 80.9281 29.6893 80.9281 29.4341V28.3202C80.9281 28.1345 80.7657 27.9721 80.58 27.9721H76.1476C74.8248 27.9721 74.7552 27.9256 74.7552 26.4636V24.4911Z" fill="#0D0F2C"/>
<path d="M128.618 29.5501L125.88 24.8624C127.319 24.3054 128.247 23.2844 128.247 21.4279V21.2886C128.247 18.295 125.764 17.3203 123.049 17.3203C121.772 17.3203 119.8 17.4131 118.895 17.5524C118.547 17.5988 118.338 17.738 118.338 18.0861V29.5733C118.338 29.7589 118.5 29.9214 118.686 29.9214H120.449C120.635 29.9214 120.774 29.7589 120.774 29.5733V25.2337C121.169 25.2569 122.584 25.3033 123.049 25.3033H123.443L125.973 29.5501C126.065 29.7125 126.135 29.8982 126.321 29.8982H128.456C128.595 29.8982 128.665 29.8054 128.665 29.6893C128.665 29.6429 128.641 29.5965 128.618 29.5501ZM125.81 21.4279C125.81 22.9595 124.835 23.3076 123.025 23.3076C122.724 23.3076 121.03 23.2612 120.751 23.2612V19.4785C121.053 19.4321 122.654 19.4089 123.025 19.4089C124.789 19.4089 125.81 19.9658 125.81 21.2886V21.4279Z" fill="#0D0F2C"/>
<path d="M70.4385 29.5501L67.6769 24.8624C69.1157 24.3054 70.044 23.2844 70.044 21.4279V21.2886C70.044 18.295 67.5609 17.3203 64.8457 17.3203C63.5694 17.3203 61.5968 17.4131 60.6918 17.5524C60.3437 17.5988 60.1348 17.738 60.1348 18.0861V29.5733C60.1348 29.7589 60.2973 29.9214 60.4829 29.9214H62.2466C62.4323 29.9214 62.5715 29.7589 62.5715 29.5733V25.2337C62.966 25.2569 64.3816 25.3033 64.8457 25.3033H65.2402L67.7697 29.5501C67.8626 29.7125 67.9322 29.8982 68.1178 29.8982H70.2528C70.3921 29.8982 70.4617 29.8054 70.4617 29.6893C70.4617 29.6429 70.4617 29.5965 70.4385 29.5501ZM67.6305 21.4279C67.6305 22.9595 66.6558 23.3076 64.8689 23.3076C64.5673 23.3076 62.8732 23.2612 62.5947 23.2612V19.4785C62.8964 19.4321 64.4976 19.4089 64.8689 19.4089C66.6326 19.4089 67.6305 19.9658 67.6305 21.2886V21.4279Z" fill="#0D0F2C"/>
</g>
<defs>
<clipPath id="clip0_5242_26387">
<rect width="158.39" height="48" fill="white" transform="translate(0.169922)"/>
</clipPath>
</defs>
</svg>
