<svg width="25" height="33" viewBox="0 0 25 33" fill="none" xmlns="http://www.w3.org/2000/svg">
<g clip-path="url(#clip0_5242_26139)">
<path d="M12.7734 7.19531C10.845 7.19531 8.96001 7.76714 7.35663 8.83848C5.75326 9.90982 4.50357 11.4326 3.76562 13.2142C3.02766 14.9957 2.83458 16.9561 3.21079 18.8474C3.58699 20.7387 4.51559 22.476 5.87915 23.8396C7.24272 25.2032 8.98 26.1318 10.8713 26.508C12.7626 26.8842 14.723 26.6911 16.5046 25.9531C18.2861 25.2152 19.8089 23.9655 20.8802 22.3621C21.9516 20.7587 22.5234 18.8737 22.5234 16.9453C22.5204 14.3604 21.4922 11.8822 19.6644 10.0543C17.8366 8.22649 15.3583 7.1983 12.7734 7.19531ZM17.417 15.238L11.9165 20.488C11.7766 20.6211 11.591 20.6953 11.3979 20.6953C11.2049 20.6953 11.0192 20.6211 10.8794 20.488L8.12989 17.863C7.98624 17.7254 7.90309 17.5364 7.89868 17.3376C7.89428 17.1387 7.96899 16.9462 8.10641 16.8024C8.24382 16.6586 8.43271 16.5752 8.63157 16.5705C8.83043 16.5659 9.023 16.6403 9.167 16.7776L11.3979 18.9082L16.3798 14.1526C16.5238 14.0154 16.7164 13.9409 16.9153 13.9455C17.1141 13.9502 17.303 14.0336 17.4404 14.1774C17.5779 14.3212 17.6526 14.5137 17.6482 14.7126C17.6438 14.9114 17.5606 15.1004 17.417 15.238Z" fill="#3E57DA"/>
</g>
<defs>
<clipPath id="clip0_5242_26139">
<rect width="24" height="31.8" fill="white" transform="translate(0.773438 0.984375)"/>
</clipPath>
</defs>
</svg>
