<svg width="22" height="17" viewBox="0 0 22 17" fill="none" xmlns="http://www.w3.org/2000/svg">
<path d="M12.2463 0.453003C12.541 0.162945 12.9407 0 13.3573 0C13.774 0 14.1737 0.162945 14.4684 0.453003L21.5399 7.41546C21.8345 7.70561 22 8.09908 22 8.50934C22 8.91961 21.8345 9.31308 21.5399 9.60322L14.4684 16.5657C14.172 16.8475 13.775 17.0035 13.363 16.9999C12.951 16.9964 12.5568 16.8337 12.2655 16.5468C11.9741 16.26 11.8088 15.8719 11.8053 15.4662C11.8017 15.0606 11.9601 14.6697 12.2463 14.3779L16.5003 10.0566H1.57145C1.15468 10.0566 0.754972 9.89354 0.460268 9.60338C0.165563 9.31323 0 8.91969 0 8.50934C0 8.09899 0.165563 7.70545 0.460268 7.4153C0.754972 7.12514 1.15468 6.96213 1.57145 6.96213H16.5003L12.2463 2.64076C11.9517 2.35062 11.7862 1.95715 11.7862 1.54688C11.7862 1.13662 11.9517 0.743148 12.2463 0.453003Z" fill="white"/>
</svg>
