<svg width="159" height="48" viewBox="0 0 159 48" fill="none" xmlns="http://www.w3.org/2000/svg">
<mask id="mask0_5242_26160" style="mask-type:luminance" maskUnits="userSpaceOnUse" x="37" y="14" width="85" height="20">
<path d="M121.195 14H37.1953V33.0909H121.195V14Z" fill="white"/>
</mask>
<g mask="url(#mask0_5242_26160)">
<mask id="mask1_5242_26160" style="mask-type:luminance" maskUnits="userSpaceOnUse" x="37" y="14" width="85" height="20">
<path d="M121.158 14H37.1953V33.0909H121.158V14Z" fill="white"/>
</mask>
<g mask="url(#mask1_5242_26160)">
<path d="M54.8034 32.8129H39.7914C38.7382 32.8129 37.7971 32.1841 37.3941 31.211C36.991 30.2379 37.2119 29.1278 37.9567 28.3832L48.3549 17.985H40.9023C38.855 17.985 37.1953 16.3253 37.1953 14.278H51.0396C52.0928 14.278 53.0338 14.9067 53.4369 15.8797C53.84 16.8528 53.6194 17.9627 52.8746 18.7077L42.4764 29.1059H51.0964C53.1437 29.1059 54.8034 30.7656 54.8034 32.8129ZM121.158 21.2286C121.158 17.2427 117.915 14 113.929 14C111.798 14 109.879 14.9284 108.555 16.4015C107.23 14.9284 105.311 14 103.179 14C99.1935 14 95.9509 17.2427 95.9509 21.2286V32.8129C97.9982 32.8129 99.6579 31.1532 99.6579 29.1059V21.2286C99.6579 19.2868 101.238 17.707 103.179 17.707C105.121 17.707 106.701 19.2868 106.701 21.2286V29.1059C106.701 31.1532 108.361 32.8129 110.408 32.8129V21.2286C110.408 19.2868 111.988 17.707 113.929 17.707C115.871 17.707 117.451 19.2868 117.451 21.2286V29.1059C117.451 31.1532 119.111 32.8129 121.158 32.8129V21.2286ZM94.0974 23.5455C94.0974 28.8173 89.8237 33.0909 84.552 33.0909C79.28 33.0909 75.0065 28.8173 75.0065 23.5455C75.0065 18.2736 79.28 14 84.552 14C89.8237 14 94.0974 18.2736 94.0974 23.5455ZM90.3904 23.5455C90.3904 20.321 87.7764 17.707 84.552 17.707C81.3273 17.707 78.7135 20.321 78.7135 23.5455C78.7135 26.77 81.3273 29.3839 84.552 29.3839C87.7764 29.3839 90.3904 26.77 90.3904 23.5455ZM73.5236 23.5455C73.5236 28.8173 69.2499 33.0909 63.9782 33.0909C58.7064 33.0909 54.4327 28.8173 54.4327 23.5455C54.4327 18.2736 58.7064 14 63.9782 14C69.2499 14 73.5236 18.2736 73.5236 23.5455ZM69.8167 23.5455C69.8167 20.321 67.2026 17.707 63.9782 17.707C60.7537 17.707 58.1397 20.321 58.1397 23.5455C58.1397 26.77 60.7537 29.3839 63.9782 29.3839C67.2026 29.3839 69.8167 26.77 69.8167 23.5455Z" fill="#0D0F2C"/>
</g>
</g>
</svg>
